<?xml version="1.0" encoding="UTF-8"?>
<!DOCTYPE svg PUBLIC "-//W3C//DTD SVG 1.1//EN" "http://www.w3.org/Graphics/SVG/1.1/DTD/svg11.dtd">
<!-- Creator: CorelDRAW 2021 (64-Bit) -->
<svg xmlns="http://www.w3.org/2000/svg" xml:space="preserve" width="7.93384in" height="2.97394in" version="1.1" style="shape-rendering:geometricPrecision; text-rendering:geometricPrecision; image-rendering:optimizeQuality; fill-rule:evenodd; clip-rule:evenodd"
viewBox="0 0 8992.27 3370.68"
 xmlns:xlink="http://www.w3.org/1999/xlink"
 xmlns:xodm="http://www.corel.com/coreldraw/odm/2003">
 <defs>
  <style type="text/css">
   <![CDATA[
    .str0 {stroke:#2F3C84;stroke-width:15.11;stroke-miterlimit:2.61313}
    .fil2 {fill:#FEFEFE}
    .fil6 {fill:#434242}
    .fil4 {fill:#E41D2D}
    .fil0 {fill:#E31E24}
    .fil1 {fill:#2F3C84}
    .fil5 {fill:#FEFEFE;fill-rule:nonzero}
    .fil3 {fill:#E41D2D;fill-rule:nonzero}
    .fil7 {fill:#2F3C84;fill-rule:nonzero}
   ]]>
  </style>
 </defs>
 <g id="Layer_x0020_1">
  <metadata id="CorelCorpID_0Corel-Layer"/>
  <g id="_1478516375552">
   <polygon class="fil0" points="0.58,0 1973.64,0 1973.64,1973.07 0.58,1973.07 "/>
   <polygon class="fil1" points="8992.27,0.64 1973.22,0.64 1973.22,1973.71 8992.27,1973.71 "/>
   <path class="fil1" d="M987.11 161.82c169.49,0 306.89,134.46 306.89,300.33 0,165.86 -137.4,300.32 -306.89,300.32 -169.49,0 -306.89,-134.46 -306.89,-300.32 0,-165.87 137.4,-300.33 306.89,-300.33z"/>
   <path class="fil2" d="M779.1 478.77c12.6,-9.15 21.53,-25.72 46.59,-20.89 17.9,3.45 27.28,20.45 29.5,38.83 24.64,-23.73 61.16,-24.59 69.06,25.51 38.99,-18.76 66.6,12.79 52.7,53.35 9.65,3.7 13.94,1.24 23.26,8.95 5,4.14 10.93,11.3 13.26,20.29 6.5,25.02 -8.61,39.67 -19.4,48.19l26.12 18.54c13.98,8.44 25.16,-0.72 31.33,-8.32 23.77,-29.25 -16.1,-52.45 -16.1,-52.47 -0.02,-0.02 -4.52,-1.5 -0.5,-9.77 8.53,-2.09 31.09,20.7 41.36,28.39 16.66,12.49 40.67,7.7 47.84,-12.07 10.81,-29.79 -11.7,-41.94 -21.93,-49.54 -6.98,-5.19 -14,-10.31 -21.53,-16.31 -11.4,-9.09 -19.47,-7.3 -15.46,-19.48 7.88,-0.66 39.28,25.71 52.32,34.69 6.42,4.42 19.76,16.21 27.34,17.99 23.8,5.59 45.16,-21.8 32.58,-49.72 -6.34,-14.07 -48.85,-38.19 -64.25,-49.46 -7.01,-5.13 -9.65,-6 -8.24,-13.38 14.52,-3.15 63.04,48.58 84.22,49.28 18.69,0.62 32.6,-18.17 30.4,-38.24 -2.44,-22.22 -50.73,-51.22 -69.66,-65.41l-81.15 -56.47c-13.9,-8.28 -27.68,-21.26 -40.6,-27.82 -29.18,15.85 -57.51,34.38 -86.05,51.19 -28.5,16.78 -64.45,46.05 -93.1,9.42 -10.68,-13.66 -13.77,-35.7 -4.54,-52.68 11.25,-20.68 100.28,-62.8 125.84,-79.6 -36.78,-23.02 -126,-8.65 -167.58,42.26 -15.34,18.78 -31.82,44.63 -37.35,76.8 -8.05,46.83 3.57,61.03 13.72,97.95z"/>
   <path class="fil2" d="M1205.69 444.91c9.45,-14.32 12.89,-47.3 12.1,-66.77 -4.52,-111.5 -136.58,-163.26 -250.09,-103.33l-101.94 59.24c-39.49,29 -6.38,90.43 45.34,57.37 33.17,-21.2 66.82,-39 101.12,-60.16 18.96,-11.7 12.26,-13.33 38.96,4.93l130.67 92.16c8.98,6.03 14.77,11.72 23.83,16.56z"/>
   <g>
    <path class="fil3" d="M964.01 671.8l-4.16 -11.82 0 0 0.5 -0.2 0.71 -0.34 0.87 -0.47 0.99 -0.58 1.1 -0.7 1.19 -0.8 1.27 -0.9 1.33 -0.98 1.39 -1.06 1.42 -1.12 1.46 -1.19 1.49 -1.24 1.51 -1.29 1.52 -1.33 1.52 -1.37 1.52 -1.4 1.5 -1.41 1.49 -1.43 1.46 -1.44 1.42 -1.43 1.38 -1.43 1.33 -1.41 1.27 -1.39 1.2 -1.37 1.13 -1.32 1.04 -1.28 0.96 -1.22 0.85 -1.15 0.74 -1.06 0.62 -0.96 0.5 -0.84 0.35 -0.68 11.29 5.36 -0.71 1.39 -0.8 1.36 -0.89 1.38 -0.98 1.41 -1.06 1.42 -1.14 1.45 -1.2 1.47 -1.28 1.5 -1.34 1.51 -1.4 1.54 -1.45 1.54 -1.49 1.54 -1.54 1.55 -1.56 1.54 -1.58 1.53 -1.62 1.52 -1.62 1.49 -1.63 1.47 -1.63 1.43 -1.62 1.39 -1.62 1.35 -1.6 1.3 -1.58 1.24 -1.54 1.17 -1.52 1.12 -1.48 1.04 -1.44 0.97 -1.41 0.89 -1.37 0.82 -1.34 0.72 -1.33 0.64 -1.36 0.54 0 0zm-41.5 -46.46l11.75 4.24 0 0 -0.56 1.74 -0.43 1.73 -0.31 1.72 -0.19 1.71 -0.08 1.69 0.03 1.66 0.14 1.65 0.24 1.61 0.34 1.57 0.44 1.54 0.52 1.49 0.62 1.43 0.7 1.38 0.78 1.31 0.85 1.25 0.92 1.17 0.98 1.09 1.04 1.02 1.11 0.93 1.15 0.84 1.2 0.74 1.25 0.66 1.29 0.55 1.33 0.45 1.37 0.35 1.42 0.24 1.46 0.13 1.49 0.02 1.55 -0.11 1.61 -0.25 1.65 -0.38 1.7 -0.54 4.16 11.82 -2.59 0.81 -2.58 0.59 -2.55 0.39 -2.54 0.18 -2.5 -0.02 -2.45 -0.22 -2.39 -0.41 -2.33 -0.59 -2.26 -0.77 -2.16 -0.93 -2.07 -1.08 -1.99 -1.23 -1.88 -1.37 -1.78 -1.49 -1.67 -1.62 -1.55 -1.73 -1.43 -1.83 -1.32 -1.93 -1.19 -2.02 -1.06 -2.1 -0.93 -2.17 -0.8 -2.24 -0.65 -2.31 -0.51 -2.36 -0.36 -2.41 -0.2 -2.45 -0.05 -2.49 0.12 -2.52 0.29 -2.53 0.46 -2.53 0.63 -2.54 0.81 -2.53 0 0zm42.91 -42.63l4.76 11.59 0 0 -0.66 0.3 -0.82 0.43 -0.96 0.56 -1.07 0.67 -1.16 0.78 -1.24 0.87 -1.29 0.96 -1.36 1.05 -1.4 1.12 -1.43 1.19 -1.46 1.25 -1.48 1.29 -1.48 1.34 -1.49 1.37 -1.48 1.41 -1.48 1.43 -1.46 1.45 -1.43 1.45 -1.39 1.45 -1.35 1.45 -1.3 1.44 -1.24 1.41 -1.18 1.38 -1.11 1.34 -1.02 1.3 -0.94 1.24 -0.84 1.17 -0.73 1.09 -0.61 0.98 -0.49 0.87 -0.35 0.71 -0.21 0.5 -11.75 -4.24 0.59 -1.45 0.69 -1.4 0.78 -1.39 0.87 -1.41 0.96 -1.43 1.04 -1.45 1.12 -1.48 1.19 -1.5 1.25 -1.52 1.32 -1.55 1.37 -1.55 1.42 -1.57 1.47 -1.57 1.5 -1.57 1.54 -1.57 1.56 -1.55 1.58 -1.54 1.6 -1.51 1.6 -1.48 1.62 -1.45 1.61 -1.41 1.59 -1.35 1.58 -1.31 1.56 -1.25 1.53 -1.19 1.52 -1.12 1.48 -1.04 1.44 -0.97 1.41 -0.89 1.38 -0.8 1.38 -0.72 1.37 -0.62 0 0zm42.73 47.86l-11.29 -5.36 0 0 0.71 -1.67 0.57 -1.68 0.43 -1.68 0.29 -1.69 0.17 -1.7 0.05 -1.68 -0.08 -1.66 -0.19 -1.66 -0.3 -1.63 -0.41 -1.59 -0.52 -1.57 -0.62 -1.51 -0.72 -1.47 -0.81 -1.41 -0.9 -1.34 -0.98 -1.27 -1.05 -1.18 -1.12 -1.1 -1.2 -1.01 -1.25 -0.91 -1.3 -0.8 -1.35 -0.69 -1.4 -0.58 -1.45 -0.47 -1.49 -0.36 -1.53 -0.22 -1.58 -0.1 -1.63 0.04 -1.68 0.18 -1.73 0.33 -1.78 0.5 -1.85 0.68 -4.76 -11.59 2.76 -1.02 2.76 -0.77 2.74 -0.54 2.72 -0.29 2.68 -0.06 2.63 0.16 2.58 0.38 2.5 0.59 2.41 0.78 2.32 0.97 2.23 1.14 2.12 1.31 2 1.45 1.88 1.59 1.77 1.71 1.64 1.84 1.5 1.95 1.37 2.04 1.24 2.15 1.09 2.22 0.95 2.31 0.79 2.37 0.63 2.44 0.46 2.49 0.29 2.52 0.11 2.57 -0.08 2.59 -0.26 2.61 -0.46 2.61 -0.66 2.61 -0.88 2.58 -1.08 2.55 0 0zm-30.39 -82.02l-12.3 2.14 0 0 -0.17 -0.84 -0.23 -0.87 -0.29 -0.9 -0.34 -0.91 -0.4 -0.92 -0.46 -0.94 -0.51 -0.93 -0.57 -0.92 -0.62 -0.92 -0.67 -0.91 -0.71 -0.88 -0.76 -0.86 -0.79 -0.83 -0.83 -0.79 -0.87 -0.77 -0.89 -0.71 -0.92 -0.67 -0.94 -0.62 -0.97 -0.57 -0.99 -0.52 -0.99 -0.46 -1 -0.39 -1.03 -0.34 -1.04 -0.28 -1.04 -0.21 -1.04 -0.15 -1.04 -0.08 -1.05 -0.01 -1.06 0.06 -1.07 0.13 -1.09 0.21 -1.1 0.29 -3.62 -12 1.92 -0.51 1.92 -0.37 1.91 -0.24 1.89 -0.11 1.87 0.02 1.85 0.14 1.82 0.25 1.78 0.36 1.73 0.46 1.7 0.55 1.66 0.65 1.61 0.73 1.54 0.81 1.5 0.87 1.45 0.95 1.4 1.01 1.34 1.08 1.28 1.12 1.23 1.17 1.17 1.22 1.11 1.25 1.06 1.31 0.98 1.33 0.92 1.37 0.86 1.41 0.79 1.44 0.71 1.45 0.65 1.48 0.57 1.51 0.49 1.52 0.4 1.54 0.32 1.56 0 0zm-50.02 71l-9.02 -8.67 0 0 2.37 -2.44 2.38 -2.37 2.39 -2.3 2.38 -2.23 2.37 -2.17 2.35 -2.11 2.32 -2.06 2.29 -2.01 2.25 -1.96 2.2 -1.92 2.15 -1.89 2.08 -1.86 2.01 -1.83 1.92 -1.79 1.84 -1.78 1.75 -1.76 1.65 -1.74 1.54 -1.72 1.43 -1.7 1.31 -1.69 1.19 -1.68 1.07 -1.67 0.94 -1.66 0.8 -1.65 0.67 -1.66 0.55 -1.66 0.42 -1.69 0.3 -1.71 0.16 -1.76 0.03 -1.83 -0.11 -1.9 -0.27 -1.99 12.3 -2.14 0.4 2.9 0.17 2.86 -0.04 2.78 -0.25 2.74 -0.46 2.67 -0.65 2.59 -0.83 2.52 -1 2.43 -1.15 2.36 -1.29 2.28 -1.41 2.21 -1.52 2.15 -1.63 2.1 -1.71 2.04 -1.79 2.01 -1.88 1.99 -1.95 1.95 -2 1.94 -2.07 1.93 -2.11 1.92 -2.15 1.92 -2.19 1.93 -2.22 1.94 -2.24 1.96 -2.26 1.98 -2.28 2.01 -2.28 2.04 -2.28 2.08 -2.27 2.12 -2.26 2.16 -2.23 2.22 -2.21 2.28 0 0zm-33.42 28.57l-3.21 -12.12 0 0 0.58 -0.18 0.65 -0.25 0.71 -0.32 0.76 -0.38 0.8 -0.46 0.86 -0.54 0.9 -0.6 0.9 -0.65 0.93 -0.71 0.95 -0.76 0.96 -0.81 0.96 -0.84 0.97 -0.88 0.99 -0.93 0.98 -0.94 0.97 -0.96 0.97 -0.98 0.97 -1 0.96 -1.01 0.94 -1 0.93 -1.01 0.92 -1 0.9 -1 0.89 -0.98 0.86 -0.96 0.84 -0.95 0.82 -0.91 0.79 -0.89 0.77 -0.86 0.75 -0.82 0.72 -0.78 0.7 -0.75 9.02 8.67 -0.6 0.64 -0.65 0.7 -0.7 0.77 -0.74 0.82 -0.78 0.87 -0.82 0.91 -0.84 0.95 -0.88 0.99 -0.91 1.01 -0.93 1.03 -0.96 1.06 -0.99 1.07 -1.01 1.08 -1.03 1.08 -1.04 1.08 -1.07 1.08 -1.09 1.08 -1.11 1.06 -1.11 1.03 -1.13 1.04 -1.15 1 -1.16 0.98 -1.17 0.94 -1.2 0.91 -1.22 0.87 -1.22 0.82 -1.24 0.77 -1.28 0.73 -1.3 0.67 -1.33 0.59 -1.37 0.52 -1.41 0.43 0 0zm-21.33 -71.74l8.55 9.14 -0 0 -3.57 3.53 -3.12 3.42 -2.69 3.3 -2.27 3.16 -1.88 3.02 -1.51 2.87 -1.17 2.72 -0.85 2.56 -0.56 2.41 -0.31 2.26 -0.07 2.11 0.13 1.98 0.33 1.85 0.5 1.75 0.67 1.66 0.82 1.57 0.97 1.48 1.12 1.4 1.25 1.31 1.38 1.21 1.49 1.11 1.59 1 1.68 0.89 1.74 0.75 1.78 0.63 1.81 0.49 1.82 0.36 1.8 0.21 1.78 0.07 1.72 -0.07 1.64 -0.21 1.55 -0.34 3.21 12.12 -2.68 0.58 -2.71 0.34 -2.74 0.11 -2.75 -0.11 -2.74 -0.33 -2.72 -0.53 -2.69 -0.73 -2.64 -0.92 -2.58 -1.13 -2.5 -1.32 -2.41 -1.51 -2.3 -1.71 -2.16 -1.91 -2.01 -2.1 -1.83 -2.3 -1.63 -2.49 -1.4 -2.68 -1.14 -2.85 -0.87 -3.02 -0.55 -3.16 -0.22 -3.28 0.12 -3.39 0.48 -3.48 0.83 -3.54 1.2 -3.61 1.57 -3.66 1.95 -3.71 2.34 -3.76 2.74 -3.81 3.15 -3.86 3.57 -3.92 4.01 -3.96 -0 0zm29.07 -27.72l8.61 9.08 0 0 -0.94 0.9 -0.94 0.9 -0.92 0.88 -0.92 0.88 -0.91 0.88 -0.91 0.87 -0.91 0.87 -0.89 0.85 -0.89 0.86 -0.91 0.86 -0.89 0.85 -0.89 0.85 -0.88 0.85 -0.89 0.85 -0.89 0.85 -0.89 0.85 -0.88 0.84 -0.89 0.85 -0.89 0.85 -0.89 0.85 -0.89 0.85 -0.9 0.86 -0.91 0.87 -0.91 0.86 -0.91 0.86 -0.92 0.87 -0.93 0.88 -0.93 0.88 -0.94 0.89 -0.95 0.89 -0.95 0.91 -0.96 0.91 -8.55 -9.14 0.96 -0.91 0.95 -0.9 0.95 -0.89 0.93 -0.88 0.93 -0.88 0.92 -0.87 0.91 -0.87 0.91 -0.87 0.91 -0.86 0.89 -0.84 0.89 -0.85 0.89 -0.85 0.89 -0.85 0.89 -0.85 0.89 -0.85 0.89 -0.86 0.88 -0.83 0.88 -0.84 0.89 -0.85 0.88 -0.85 0.89 -0.85 0.89 -0.85 0.89 -0.85 0.89 -0.86 0.91 -0.87 0.9 -0.86 0.91 -0.87 0.91 -0.87 0.92 -0.88 0.93 -0.89 0.94 -0.9 0.94 -0.9 0 0zm34.28 -27.43l3.62 12 -0 0 -1.07 0.35 -1.04 0.39 -1.02 0.43 -1.01 0.46 -0.98 0.5 -0.96 0.54 -0.96 0.58 -0.95 0.62 -0.93 0.64 -0.92 0.67 -0.92 0.71 -0.91 0.74 -0.89 0.76 -0.89 0.79 -0.89 0.81 -0.88 0.83 -0.88 0.86 -0.87 0.87 -0.86 0.89 -0.87 0.91 -0.86 0.91 -0.86 0.93 -0.87 0.94 -0.86 0.94 -0.87 0.94 -0.87 0.95 -0.87 0.93 -0.88 0.95 -0.89 0.93 -0.9 0.92 -0.92 0.92 -0.93 0.91 -8.61 -9.08 0.79 -0.77 0.79 -0.79 0.81 -0.83 0.82 -0.85 0.82 -0.87 0.84 -0.91 0.85 -0.91 0.86 -0.93 0.88 -0.95 0.88 -0.95 0.9 -0.97 0.92 -0.98 0.93 -0.97 0.96 -0.99 0.98 -0.99 1 -0.97 1.02 -0.98 1.05 -0.96 1.08 -0.95 1.11 -0.94 1.13 -0.91 1.16 -0.9 1.2 -0.88 1.24 -0.85 1.27 -0.81 1.3 -0.79 1.35 -0.75 1.4 -0.71 1.43 -0.66 1.47 -0.62 1.51 -0.56 1.55 -0.51 -0 0zm-17.18 -9.93l-12.14 2.94 0 0 -0.22 -0.83 -0.28 -0.86 -0.33 -0.87 -0.39 -0.88 -0.44 -0.89 -0.49 -0.88 -0.54 -0.89 -0.59 -0.87 -0.63 -0.85 -0.68 -0.84 -0.71 -0.82 -0.75 -0.79 -0.79 -0.76 -0.82 -0.72 -0.85 -0.69 -0.87 -0.64 -0.89 -0.6 -0.9 -0.54 -0.93 -0.5 -0.95 -0.45 -0.95 -0.4 -0.93 -0.33 -0.96 -0.28 -0.97 -0.22 -0.95 -0.16 -0.96 -0.1 -0.96 -0.04 -0.97 0.03 -0.98 0.09 -0.98 0.16 -0.99 0.23 -1.01 0.31 -4.05 -11.86 1.81 -0.55 1.82 -0.43 1.83 -0.3 1.8 -0.17 1.79 -0.05 1.78 0.07 1.74 0.18 1.72 0.29 1.66 0.38 1.64 0.47 1.61 0.57 1.56 0.65 1.5 0.72 1.46 0.79 1.43 0.87 1.37 0.92 1.33 0.98 1.27 1.04 1.22 1.08 1.17 1.13 1.11 1.16 1.07 1.22 1 1.24 0.95 1.29 0.88 1.32 0.83 1.34 0.76 1.37 0.69 1.4 0.63 1.43 0.55 1.45 0.48 1.46 0.4 1.49 0 0zm-19.79 44.51l-8.64 -9.06 0 0 0.84 -0.79 0.85 -0.79 0.87 -0.8 0.87 -0.79 0.88 -0.81 0.87 -0.81 0.87 -0.83 0.87 -0.84 0.84 -0.84 0.83 -0.86 0.82 -0.88 0.78 -0.88 0.77 -0.91 0.73 -0.91 0.69 -0.93 0.66 -0.95 0.62 -0.96 0.57 -0.98 0.53 -1 0.47 -1.01 0.43 -1.04 0.38 -1.07 0.32 -1.08 0.26 -1.12 0.21 -1.16 0.14 -1.19 0.08 -1.24 0.01 -1.28 -0.07 -1.34 -0.14 -1.41 -0.23 -1.46 -0.33 -1.54 12.14 -2.94 0.46 2.17 0.34 2.14 0.21 2.08 0.1 2.04 -0.02 2.01 -0.13 1.95 -0.23 1.9 -0.33 1.84 -0.42 1.79 -0.52 1.74 -0.59 1.66 -0.66 1.61 -0.73 1.55 -0.79 1.49 -0.84 1.43 -0.87 1.37 -0.91 1.32 -0.95 1.27 -0.96 1.21 -0.97 1.16 -1 1.12 -0.99 1.06 -0.99 1.03 -1 0.99 -0.97 0.94 -0.96 0.91 -0.94 0.87 -0.91 0.84 -0.87 0.8 -0.83 0.77 -0.78 0.73 -0.74 0.71 0 0zm-62.85 57.07l-4.06 -11.86 0 0 -0.09 0.03 0.57 -0.34 0.94 -0.64 1.2 -0.89 1.42 -1.12 1.61 -1.32 1.76 -1.49 1.9 -1.65 2.03 -1.79 2.13 -1.91 2.22 -2.03 2.29 -2.12 2.35 -2.2 2.4 -2.26 2.44 -2.3 2.45 -2.33 2.46 -2.36 2.45 -2.36 2.42 -2.34 2.39 -2.32 2.34 -2.28 2.27 -2.22 2.2 -2.16 2.11 -2.07 2 -1.97 1.88 -1.86 1.76 -1.73 1.6 -1.58 1.45 -1.43 1.29 -1.27 1.11 -1.08 0.91 -0.89 8.64 9.06 -0.87 0.84 -1.08 1.05 -1.26 1.24 -1.45 1.42 -1.61 1.59 -1.76 1.73 -1.88 1.86 -2.01 1.98 -2.11 2.07 -2.2 2.16 -2.29 2.24 -2.35 2.29 -2.41 2.34 -2.44 2.36 -2.47 2.38 -2.48 2.37 -2.48 2.37 -2.46 2.33 -2.44 2.29 -2.4 2.23 -2.34 2.16 -2.28 2.08 -2.2 1.98 -2.11 1.87 -2.01 1.74 -1.9 1.61 -1.78 1.45 -1.66 1.3 -1.55 1.15 -1.45 0.99 -1.45 0.85 -1.69 0.75 0 0zm-42.39 -25.48l12.16 -2.82 0 0 0.24 0.93 0.29 0.94 0.34 0.95 0.4 0.95 0.46 0.96 0.5 0.95 0.55 0.94 0.59 0.92 0.64 0.9 0.68 0.87 0.72 0.85 0.76 0.83 0.79 0.78 0.83 0.74 0.87 0.71 0.89 0.66 0.9 0.6 0.93 0.56 0.96 0.51 0.96 0.45 0.99 0.39 1 0.34 1.01 0.27 1.04 0.21 1.04 0.16 1.06 0.08 1.08 0.02 1.07 -0.05 1.11 -0.12 1.14 -0.2 1.16 -0.28 1.18 -0.37 4.06 11.86 -1.92 0.6 -1.93 0.47 -1.91 0.33 -1.91 0.21 -1.9 0.08 -1.86 -0.04 -1.83 -0.15 -1.8 -0.26 -1.76 -0.37 -1.73 -0.47 -1.68 -0.56 -1.63 -0.65 -1.58 -0.74 -1.52 -0.81 -1.48 -0.88 -1.43 -0.96 -1.36 -1.02 -1.3 -1.07 -1.25 -1.12 -1.2 -1.19 -1.13 -1.22 -1.08 -1.27 -1.02 -1.31 -0.95 -1.35 -0.89 -1.38 -0.82 -1.41 -0.76 -1.44 -0.69 -1.46 -0.63 -1.49 -0.55 -1.52 -0.47 -1.52 -0.4 -1.54 0 0zm50.74 -72.23l8.84 8.85 0 0 -2.45 2.44 -2.47 2.38 -2.47 2.31 -2.45 2.27 -2.45 2.21 -2.42 2.17 -2.4 2.12 -2.36 2.08 -2.31 2.04 -2.26 2 -2.2 1.97 -2.13 1.94 -2.06 1.91 -1.98 1.89 -1.88 1.86 -1.78 1.84 -1.68 1.81 -1.57 1.79 -1.45 1.77 -1.33 1.75 -1.2 1.72 -1.06 1.7 -0.92 1.67 -0.79 1.66 -0.65 1.63 -0.51 1.62 -0.37 1.61 -0.25 1.61 -0.11 1.63 0.03 1.67 0.18 1.71 0.33 1.79 -12.16 2.82 -0.52 -2.79 -0.29 -2.77 -0.05 -2.73 0.18 -2.69 0.4 -2.63 0.61 -2.57 0.79 -2.51 0.97 -2.43 1.12 -2.36 1.27 -2.3 1.4 -2.25 1.52 -2.19 1.63 -2.15 1.73 -2.11 1.82 -2.08 1.9 -2.05 1.98 -2.03 2.05 -2.02 2.11 -2.02 2.17 -2.01 2.21 -2.02 2.26 -2.03 2.29 -2.04 2.33 -2.05 2.35 -2.07 2.36 -2.09 2.37 -2.12 2.38 -2.15 2.37 -2.19 2.37 -2.22 2.34 -2.25 2.32 -2.3 0 0zm33.44 -28.67l4.05 11.86 0 0 -0.88 0.33 -0.88 0.37 -0.9 0.43 -0.91 0.48 -0.91 0.53 -0.92 0.58 -0.94 0.63 -0.94 0.67 -0.93 0.71 -0.95 0.75 -0.94 0.78 -0.93 0.82 -0.94 0.85 -0.94 0.88 -0.93 0.9 -0.91 0.91 -0.92 0.94 -0.91 0.95 -0.91 0.97 -0.9 0.97 -0.88 0.97 -0.89 0.98 -0.88 0.98 -0.86 0.96 -0.86 0.97 -0.86 0.96 -0.84 0.94 -0.85 0.94 -0.83 0.9 -0.83 0.89 -0.83 0.87 -0.82 0.84 -8.84 -8.85 0.71 -0.72 0.72 -0.75 0.75 -0.81 0.79 -0.85 0.79 -0.87 0.83 -0.91 0.83 -0.93 0.86 -0.97 0.89 -0.99 0.91 -1 0.91 -1.01 0.95 -1.04 0.96 -1.03 0.97 -1.04 1 -1.04 1.02 -1.04 1.05 -1.04 1.06 -1.02 1.08 -1.01 1.1 -1 1.13 -0.98 1.15 -0.97 1.17 -0.93 1.2 -0.91 1.22 -0.87 1.24 -0.84 1.29 -0.8 1.32 -0.76 1.34 -0.71 1.37 -0.66 1.41 -0.6 1.44 -0.54 0 0zm-34.51 31.16l-9.89 -7.66 -0 0 1.22 -1.73 1.02 -1.74 0.85 -1.74 0.66 -1.75 0.51 -1.76 0.36 -1.76 0.21 -1.77 0.07 -1.76 -0.07 -1.75 -0.2 -1.74 -0.33 -1.72 -0.45 -1.69 -0.56 -1.65 -0.68 -1.6 -0.79 -1.55 -0.89 -1.48 -0.97 -1.41 -1.06 -1.33 -1.14 -1.23 -1.2 -1.13 -1.27 -1.02 -1.32 -0.91 -1.36 -0.78 -1.39 -0.66 -1.42 -0.53 -1.45 -0.4 -1.46 -0.27 -1.48 -0.13 -1.51 0.01 -1.54 0.16 -1.56 0.32 -1.6 0.49 -4.2 -11.81 2.73 -0.84 2.75 -0.56 2.72 -0.29 2.7 -0.02 2.65 0.23 2.59 0.47 2.51 0.7 2.42 0.91 2.33 1.1 2.22 1.29 2.11 1.45 2 1.61 1.87 1.75 1.74 1.88 1.62 2 1.47 2.12 1.33 2.22 1.18 2.32 1.02 2.41 0.86 2.5 0.67 2.56 0.5 2.63 0.3 2.67 0.1 2.73 -0.12 2.75 -0.33 2.76 -0.56 2.77 -0.8 2.75 -1.05 2.74 -1.29 2.69 -1.54 2.63 -1.8 2.55 -0 0zm-51.24 46.48l-4.08 -11.85 -0 0 -0.46 0.2 0.33 -0.21 0.72 -0.51 0.96 -0.73 1.16 -0.94 1.33 -1.1 1.48 -1.26 1.61 -1.39 1.71 -1.51 1.82 -1.62 1.9 -1.7 1.95 -1.77 2 -1.84 2.05 -1.88 2.06 -1.92 2.08 -1.94 2.07 -1.95 2.05 -1.94 2.02 -1.92 1.97 -1.88 1.91 -1.84 1.84 -1.77 1.74 -1.7 1.65 -1.61 1.54 -1.51 1.4 -1.39 1.26 -1.26 1.09 -1.1 0.91 -0.94 0.71 -0.75 0.46 -0.5 0.1 -0.12 9.89 7.66 -0.63 0.76 -0.7 0.77 -0.83 0.88 -1 1.03 -1.16 1.17 -1.3 1.3 -1.44 1.42 -1.56 1.54 -1.67 1.64 -1.78 1.73 -1.87 1.8 -1.94 1.86 -2 1.91 -2.04 1.94 -2.08 1.97 -2.1 1.96 -2.1 1.97 -2.1 1.95 -2.07 1.92 -2.05 1.87 -2 1.82 -1.94 1.74 -1.86 1.66 -1.78 1.57 -1.69 1.46 -1.58 1.34 -1.48 1.22 -1.35 1.08 -1.24 0.95 -1.16 0.82 -1.16 0.73 -1.57 0.72 -0 0zm-37.03 -56.63l10 7.51 0 0 -1.14 1.66 -0.99 1.71 -0.83 1.76 -0.7 1.81 -0.55 1.84 -0.42 1.87 -0.28 1.88 -0.14 1.9 -0.01 1.9 0.11 1.88 0.24 1.86 0.37 1.83 0.48 1.78 0.6 1.71 0.71 1.66 0.81 1.58 0.91 1.48 1 1.39 1.09 1.29 1.18 1.18 1.24 1.06 1.32 0.93 1.4 0.81 1.47 0.68 1.54 0.54 1.63 0.41 1.72 0.26 1.81 0.1 1.92 -0.07 2.04 -0.26 2.15 -0.46 2.27 -0.69 4.08 11.85 -3.21 0.98 -3.18 0.68 -3.11 0.4 -3.05 0.12 -2.98 -0.17 -2.89 -0.44 -2.78 -0.7 -2.65 -0.94 -2.52 -1.16 -2.38 -1.38 -2.23 -1.58 -2.07 -1.75 -1.89 -1.9 -1.74 -2.04 -1.57 -2.17 -1.41 -2.29 -1.22 -2.38 -1.05 -2.46 -0.89 -2.55 -0.71 -2.61 -0.53 -2.66 -0.36 -2.71 -0.17 -2.74 0.02 -2.76 0.21 -2.77 0.41 -2.78 0.62 -2.76 0.82 -2.74 1.04 -2.69 1.25 -2.64 1.48 -2.56 1.69 -2.48 0 0zm53.38 -45.33l4.2 11.81 0 0 0.04 -0.01 -0.51 0.29 -0.84 0.53 -1.06 0.73 -1.26 0.91 -1.42 1.06 -1.56 1.2 -1.68 1.33 -1.79 1.43 -1.87 1.52 -1.95 1.6 -2 1.68 -2.06 1.74 -2.09 1.78 -2.11 1.81 -2.11 1.83 -2.11 1.84 -2.09 1.83 -2.05 1.82 -2 1.79 -1.95 1.76 -1.88 1.7 -1.78 1.63 -1.68 1.55 -1.57 1.47 -1.44 1.36 -1.29 1.24 -1.14 1.12 -0.95 0.95 -0.74 0.77 -0.5 0.55 -0.17 0.2 -10 -7.51 0.74 -0.91 0.81 -0.89 0.95 -1 1.09 -1.1 1.22 -1.2 1.37 -1.33 1.5 -1.42 1.62 -1.52 1.74 -1.61 1.83 -1.67 1.91 -1.74 1.98 -1.78 2.04 -1.83 2.09 -1.86 2.12 -1.87 2.14 -1.87 2.15 -1.86 2.15 -1.85 2.13 -1.81 2.1 -1.77 2.06 -1.72 2.01 -1.66 1.95 -1.58 1.86 -1.49 1.78 -1.4 1.68 -1.29 1.58 -1.18 1.46 -1.06 1.37 -0.93 1.28 -0.81 1.25 -0.7 1.43 -0.63 0 0zm369.35 -28.68l7.18 -10.26 -0.12 -0.08 0.88 0.59 0.86 0.6 0.83 0.58 0.81 0.57 0.81 0.58 0.8 0.58 0.75 0.56 0.75 0.55 0.75 0.57 0.74 0.56 0.71 0.54 0.7 0.53 0.71 0.54 0.7 0.53 0.67 0.51 0.7 0.52 0.68 0.52 0.65 0.48 0.67 0.49 0.68 0.5 0.67 0.48 0.66 0.46 0.68 0.47 0.67 0.46 0.68 0.45 0.71 0.46 0.7 0.44 0.71 0.44 0.71 0.43 0.74 0.42 0.76 0.42 0.76 0.41 -5.87 11.07 -0.92 -0.5 -0.88 -0.5 -0.88 -0.5 -0.87 -0.52 -0.83 -0.51 -0.83 -0.53 -0.79 -0.52 -0.8 -0.52 -0.78 -0.53 -0.76 -0.52 -0.76 -0.54 -0.75 -0.54 -0.72 -0.52 -0.73 -0.53 -0.75 -0.55 -0.7 -0.53 -0.7 -0.53 -0.72 -0.54 -0.7 -0.54 -0.7 -0.53 -0.71 -0.54 -0.71 -0.54 -0.7 -0.53 -0.7 -0.52 -0.73 -0.54 -0.74 -0.55 -0.71 -0.52 -0.73 -0.52 -0.76 -0.54 -0.77 -0.54 -0.76 -0.53 -0.79 -0.54 -0.12 -0.08zm0.12 0.08l-0.14 -0.09 0.02 0.01 0.12 0.08zm-123.61 -102.51l130.67 92.16 -7.18 10.26 -130.67 -92.16 7.1 -10.32 0.08 0.05zm-0.08 -0.05l0 0 0.08 0.05 -0.08 -0.05zm-39.21 5.6l-6.53 -10.68 0 0 1.64 -1.03 1.5 -0.96 1.39 -0.92 1.3 -0.87 1.21 -0.81 1.14 -0.76 1.09 -0.71 1.07 -0.68 1.08 -0.64 1.08 -0.58 1.15 -0.55 1.23 -0.48 1.3 -0.38 1.39 -0.26 1.46 -0.11 1.46 0.07 1.41 0.22 1.37 0.36 1.31 0.47 1.26 0.55 1.23 0.62 1.25 0.7 1.29 0.78 1.34 0.85 1.41 0.93 1.51 1.03 1.62 1.12 1.75 1.21 1.89 1.32 2.03 1.42 2.2 1.52 2.39 1.64 -7.02 10.37 -2.43 -1.67 -2.24 -1.55 -2.06 -1.44 -1.88 -1.31 -1.72 -1.2 -1.56 -1.08 -1.41 -0.95 -1.27 -0.84 -1.12 -0.72 -0.98 -0.59 -0.84 -0.47 -0.71 -0.36 -0.54 -0.24 -0.38 -0.14 -0.24 -0.06 -0.12 -0.02 -0.04 -0 0 0 -0.08 0.02 -0.18 0.06 -0.31 0.12 -0.44 0.21 -0.59 0.33 -0.7 0.41 -0.84 0.54 -0.97 0.63 -1.08 0.73 -1.22 0.82 -1.33 0.89 -1.49 0.97 -1.62 1.04 -1.77 1.11 0 0zm-101.04 60.11l-6.7 -10.58 0 0 3.14 -1.99 3.13 -1.97 3.14 -1.96 3.15 -1.94 3.14 -1.92 3.15 -1.91 3.15 -1.9 3.15 -1.88 3.14 -1.87 3.15 -1.87 3.15 -1.85 3.15 -1.85 3.16 -1.84 3.15 -1.83 3.15 -1.83 3.16 -1.83 3.17 -1.83 3.16 -1.83 3.16 -1.83 3.17 -1.84 3.17 -1.84 3.17 -1.84 3.17 -1.85 3.18 -1.86 3.18 -1.87 3.19 -1.87 3.18 -1.88 3.19 -1.9 3.19 -1.91 3.19 -1.93 3.19 -1.95 3.19 -1.96 6.53 10.68 -3.23 1.99 -3.23 1.97 -3.22 1.95 -3.22 1.93 -3.21 1.92 -3.21 1.9 -3.2 1.89 -3.19 1.87 -3.19 1.87 -3.19 1.86 -3.19 1.85 -3.17 1.84 -3.17 1.84 -3.17 1.83 -3.17 1.83 -3.16 1.83 -3.15 1.83 -3.15 1.83 -3.15 1.83 -3.13 1.83 -3.14 1.84 -3.13 1.83 -3.12 1.85 -3.12 1.86 -3.11 1.86 -3.11 1.88 -3.11 1.88 -3.1 1.9 -3.1 1.91 -3.09 1.93 -3.1 1.95 -3.08 1.96 0 0zm-51.82 -68.08l6.26 10.85 0.56 -0.37 -3.06 2.46 -2.66 2.57 -2.28 2.67 -1.92 2.74 -1.59 2.8 -1.26 2.85 -0.95 2.89 -0.66 2.9 -0.37 2.89 -0.09 2.87 0.18 2.84 0.45 2.78 0.7 2.7 0.94 2.61 1.17 2.49 1.4 2.36 1.6 2.19 1.82 2.02 2 1.83 2.19 1.62 2.37 1.4 2.55 1.16 2.73 0.9 2.92 0.62 3.11 0.33 3.29 0 3.49 -0.35 3.68 -0.73 3.87 -1.15 4.07 -1.6 4.23 -2.07 4.4 -2.6 6.7 10.58 -5.18 3.06 -5.12 2.51 -5.03 1.98 -4.94 1.46 -4.84 0.96 -4.7 0.46 -4.57 -0 -4.4 -0.47 -4.21 -0.9 -4 -1.32 -3.77 -1.71 -3.51 -2.06 -3.24 -2.39 -2.94 -2.68 -2.65 -2.95 -2.33 -3.19 -2.01 -3.39 -1.68 -3.57 -1.34 -3.72 -0.99 -3.85 -0.62 -3.95 -0.26 -4.02 0.12 -4.08 0.53 -4.09 0.92 -4.08 1.34 -4.04 1.76 -3.98 2.19 -3.87 2.62 -3.73 3.06 -3.57 3.49 -3.38 3.92 -3.16 0.56 -0.37zm-0.56 0.37l0.27 -0.2 0.29 -0.17 -0.56 0.37zm108.75 -48.75l-101.94 59.24 -6.26 -10.85 101.94 -59.24 0.22 -0.12 6.03 10.98zm-6.26 -10.85l0.13 -0.08 0.09 -0.05 -0.22 0.12zm259.45 108.5l-12.48 0.51 0 0 -0.76 -9.82 -1.44 -9.45 -2.1 -9.09 -2.73 -8.71 -3.34 -8.33 -3.92 -7.95 -4.47 -7.57 -5.01 -7.17 -5.52 -6.78 -6.01 -6.37 -6.47 -5.96 -6.91 -5.53 -7.34 -5.1 -7.73 -4.65 -8.09 -4.2 -8.45 -3.73 -8.76 -3.25 -9.05 -2.77 -9.32 -2.26 -9.57 -1.76 -9.78 -1.24 -9.97 -0.7 -10.13 -0.17 -10.26 0.39 -10.37 0.95 -10.46 1.52 -10.51 2.09 -10.54 2.69 -10.54 3.29 -10.52 3.9 -10.47 4.52 -10.4 5.15 -5.81 -11.1 10.98 -5.43 11.07 -4.78 11.14 -4.12 11.17 -3.49 11.17 -2.85 11.16 -2.23 11.11 -1.61 11.04 -1.01 10.93 -0.41 10.8 0.17 10.65 0.75 10.46 1.32 10.25 1.88 10.02 2.43 9.75 2.98 9.46 3.51 9.14 4.04 8.8 4.56 8.42 5.07 8.01 5.57 7.58 6.06 7.12 6.55 6.62 7.03 6.1 7.49 5.54 7.95 4.96 8.38 4.34 8.81 3.69 9.23 3.02 9.63 2.31 10.01 1.58 10.38 0.83 10.74 0 0zm-21.28 72.56l5.87 -11.07 -8.14 2.07 0.7 -1.12 0.69 -1.24 0.69 -1.38 0.67 -1.48 0.65 -1.58 0.63 -1.68 0.61 -1.77 0.58 -1.85 0.56 -1.92 0.53 -1.99 0.51 -2.05 0.47 -2.1 0.46 -2.15 0.41 -2.18 0.4 -2.22 0.37 -2.24 0.34 -2.26 0.31 -2.27 0.28 -2.29 0.25 -2.28 0.22 -2.27 0.2 -2.26 0.17 -2.24 0.14 -2.22 0.12 -2.19 0.09 -2.15 0.06 -2.09 0.04 -2.05 0.01 -1.99 -0.01 -1.92 -0.04 -1.85 -0.06 -1.77 12.48 -0.51 0.07 1.96 0.04 2.03 0.01 2.08 -0.01 2.14 -0.04 2.2 -0.07 2.25 -0.1 2.29 -0.12 2.32 -0.15 2.35 -0.18 2.39 -0.21 2.4 -0.24 2.42 -0.27 2.43 -0.3 2.42 -0.33 2.44 -0.37 2.43 -0.39 2.41 -0.42 2.39 -0.46 2.38 -0.49 2.35 -0.53 2.32 -0.56 2.29 -0.6 2.24 -0.63 2.19 -0.68 2.14 -0.72 2.08 -0.76 2.03 -0.81 1.97 -0.86 1.9 -0.91 1.82 -0.97 1.76 -1.04 1.67 -8.14 2.07zm8.14 -2.07l-3.13 4.75 -5.01 -2.68 8.14 -2.07zm-451.67 -68.62l12.31 2.13 0 0 -0.68 4.18 -0.57 3.99 -0.46 3.81 -0.36 3.64 -0.27 3.49 -0.17 3.33 -0.08 3.2 0 3.07 0.08 2.96 0.16 2.86 0.23 2.77 0.29 2.7 0.36 2.62 0.42 2.57 0.48 2.54 0.54 2.5 0.59 2.49 0.64 2.49 0.69 2.49 0.74 2.51 0.78 2.54 0.81 2.57 0.85 2.62 0.88 2.68 0.9 2.74 0.93 2.82 0.95 2.91 0.96 3.01 0.97 3.1 0.98 3.21 0.98 3.34 0.98 3.46 -12.04 3.34 -0.93 -3.33 -0.94 -3.21 -0.95 -3.11 -0.94 -3.02 -0.94 -2.93 -0.93 -2.86 -0.92 -2.8 -0.91 -2.76 -0.89 -2.71 -0.87 -2.69 -0.84 -2.67 -0.81 -2.66 -0.78 -2.67 -0.74 -2.69 -0.7 -2.71 -0.65 -2.74 -0.6 -2.78 -0.54 -2.83 -0.48 -2.89 -0.4 -2.96 -0.34 -3.03 -0.25 -3.12 -0.17 -3.2 -0.09 -3.3 0 -3.4 0.09 -3.53 0.19 -3.65 0.29 -3.78 0.39 -3.93 0.5 -4.08 0.61 -4.24 0.71 -4.41 0 0zm38.68 -79.71l9.66 7.95 0 0 -1.41 1.74 -1.41 1.78 -1.41 1.81 -1.41 1.85 -1.4 1.89 -1.4 1.93 -1.39 1.96 -1.38 2.01 -1.37 2.04 -1.35 2.07 -1.34 2.12 -1.33 2.15 -1.3 2.19 -1.28 2.22 -1.25 2.26 -1.23 2.3 -1.2 2.33 -1.16 2.37 -1.14 2.41 -1.11 2.44 -1.06 2.47 -1.03 2.52 -0.99 2.54 -0.94 2.58 -0.9 2.62 -0.85 2.65 -0.79 2.68 -0.75 2.73 -0.7 2.75 -0.64 2.79 -0.59 2.82 -0.52 2.86 -12.31 -2.13 0.58 -3.14 0.64 -3.09 0.7 -3.06 0.77 -3.02 0.82 -2.97 0.87 -2.94 0.93 -2.9 0.97 -2.85 1.03 -2.81 1.08 -2.78 1.11 -2.72 1.16 -2.7 1.2 -2.64 1.23 -2.59 1.26 -2.57 1.29 -2.52 1.32 -2.47 1.35 -2.43 1.38 -2.39 1.39 -2.34 1.41 -2.3 1.43 -2.26 1.45 -2.22 1.46 -2.17 1.47 -2.13 1.47 -2.09 1.49 -2.04 1.49 -2 1.49 -1.96 1.48 -1.91 1.49 -1.87 1.48 -1.83 0 0zm175.83 -33.04l-6.84 -10.5 0.12 10.57 -3.16 -1.8 -3.47 -1.63 -3.77 -1.46 -4.05 -1.28 -4.31 -1.09 -4.55 -0.89 -4.77 -0.7 -4.96 -0.49 -5.14 -0.29 -5.29 -0.08 -5.43 0.13 -5.54 0.34 -5.64 0.54 -5.71 0.76 -5.77 0.97 -5.8 1.17 -5.82 1.39 -5.81 1.6 -5.79 1.81 -5.76 2.01 -5.68 2.21 -5.61 2.43 -5.51 2.63 -5.39 2.83 -5.26 3.03 -5.1 3.24 -4.92 3.43 -4.74 3.64 -4.53 3.82 -4.31 4.02 -4.07 4.21 -3.81 4.4 -9.66 -7.95 4.26 -4.93 4.53 -4.69 4.77 -4.46 5 -4.22 5.19 -3.98 5.39 -3.75 5.55 -3.52 5.69 -3.29 5.82 -3.06 5.93 -2.84 6.03 -2.61 6.1 -2.38 6.16 -2.16 6.2 -1.93 6.22 -1.7 6.23 -1.49 6.21 -1.26 6.19 -1.04 6.14 -0.81 6.07 -0.59 6 -0.37 5.9 -0.14 5.78 0.09 5.66 0.32 5.51 0.54 5.35 0.79 5.17 1.02 4.98 1.26 4.77 1.5 4.55 1.76 4.3 2.03 4.04 2.3 0.12 10.57zm-0.12 -10.57l8.3 5.19 -8.18 5.38 -0.12 -10.57zm-123.67 87.93l-10.96 -6.02 0 0 1.71 -2.68 2.08 -2.58 2.41 -2.54 2.73 -2.55 3.04 -2.58 3.33 -2.62 3.6 -2.67 3.86 -2.73 4.09 -2.76 4.29 -2.79 4.48 -2.83 4.65 -2.86 4.78 -2.86 4.89 -2.88 4.98 -2.88 5.05 -2.87 5.08 -2.86 5.09 -2.84 5.07 -2.81 5.04 -2.76 4.97 -2.72 4.88 -2.66 4.76 -2.59 4.61 -2.53 4.44 -2.44 4.25 -2.35 4.02 -2.25 3.77 -2.13 3.49 -2.01 3.17 -1.88 2.83 -1.73 2.46 -1.57 6.84 10.5 -2.7 1.72 -3.01 1.85 -3.32 1.96 -3.59 2.07 -3.85 2.18 -4.08 2.28 -4.28 2.37 -4.47 2.45 -4.63 2.53 -4.76 2.6 -4.87 2.66 -4.96 2.71 -5.01 2.75 -5.04 2.79 -5.05 2.81 -5.03 2.83 -4.98 2.84 -4.9 2.84 -4.81 2.83 -4.68 2.81 -4.52 2.78 -4.34 2.74 -4.13 2.7 -3.9 2.63 -3.64 2.56 -3.33 2.48 -3.01 2.37 -2.64 2.24 -2.25 2.11 -1.82 1.91 -1.34 1.66 -0.84 1.32 0 0zm3.97 45.8l-9.82 7.75 -0 0 -1.12 -1.5 -1.08 -1.56 -1.01 -1.59 -0.96 -1.64 -0.9 -1.68 -0.84 -1.71 -0.78 -1.74 -0.73 -1.78 -0.66 -1.82 -0.6 -1.83 -0.55 -1.87 -0.48 -1.89 -0.42 -1.91 -0.36 -1.92 -0.3 -1.95 -0.23 -1.95 -0.17 -1.96 -0.1 -1.98 -0.04 -1.98 0.04 -1.99 0.1 -1.99 0.18 -1.99 0.25 -1.99 0.32 -1.98 0.4 -1.98 0.47 -1.96 0.55 -1.95 0.62 -1.94 0.71 -1.91 0.79 -1.9 0.87 -1.87 0.95 -1.84 10.96 6.02 -0.71 1.37 -0.65 1.39 -0.59 1.42 -0.53 1.44 -0.47 1.46 -0.41 1.49 -0.36 1.5 -0.3 1.51 -0.25 1.53 -0.19 1.54 -0.13 1.54 -0.08 1.55 -0.03 1.55 0.03 1.55 0.08 1.55 0.13 1.54 0.18 1.54 0.24 1.53 0.28 1.51 0.33 1.49 0.38 1.49 0.42 1.45 0.48 1.44 0.51 1.41 0.56 1.38 0.6 1.35 0.65 1.31 0.68 1.28 0.73 1.24 0.76 1.2 0.79 1.15 0.83 1.11 -0 0zm85.03 -10.96l6.32 10.82 0 0 -2.63 1.57 -2.7 1.65 -2.75 1.7 -2.81 1.74 -2.85 1.77 -2.9 1.78 -2.95 1.77 -2.99 1.76 -3.03 1.72 -3.07 1.67 -3.11 1.62 -3.15 1.54 -3.18 1.44 -3.21 1.34 -3.26 1.21 -3.29 1.07 -3.32 0.91 -3.36 0.73 -3.4 0.53 -3.43 0.31 -3.46 0.07 -3.47 -0.21 -3.49 -0.48 -3.48 -0.79 -3.45 -1.11 -3.41 -1.44 -3.36 -1.78 -3.3 -2.13 -3.21 -2.48 -3.13 -2.83 -3.06 -3.19 -2.96 -3.56 9.82 -7.75 2.45 2.93 2.44 2.55 2.44 2.2 2.42 1.87 2.4 1.55 2.41 1.27 2.4 1.01 2.41 0.78 2.42 0.55 2.46 0.34 2.5 0.14 2.54 -0.05 2.59 -0.24 2.64 -0.41 2.68 -0.58 2.73 -0.75 2.76 -0.9 2.78 -1.04 2.81 -1.17 2.84 -1.29 2.84 -1.39 2.86 -1.49 2.86 -1.57 2.86 -1.62 2.86 -1.68 2.85 -1.72 2.84 -1.74 2.82 -1.75 2.82 -1.74 2.79 -1.72 2.77 -1.69 2.75 -1.64 0 0zm92.02 -51.37l-5.63 11.19 5.78 -0.08 -2.7 1.48 -2.7 1.49 -2.7 1.5 -2.69 1.52 -2.7 1.54 -2.7 1.54 -2.69 1.56 -2.69 1.58 -2.69 1.58 -2.68 1.59 -2.68 1.6 -2.68 1.61 -2.69 1.62 -2.67 1.62 -2.68 1.62 -2.68 1.63 -2.67 1.63 -2.67 1.64 -2.68 1.64 -2.67 1.63 -2.67 1.64 -2.68 1.64 -2.68 1.63 -2.68 1.64 -2.68 1.63 -2.68 1.62 -2.68 1.63 -2.69 1.62 -2.68 1.62 -2.69 1.6 -2.69 1.6 -2.69 1.59 -6.32 -10.82 2.66 -1.57 2.66 -1.58 2.66 -1.59 2.66 -1.6 2.66 -1.61 2.66 -1.61 2.67 -1.62 2.67 -1.62 2.67 -1.63 2.67 -1.63 2.67 -1.63 2.67 -1.64 2.68 -1.64 2.68 -1.64 2.68 -1.64 2.69 -1.65 2.69 -1.63 2.69 -1.63 2.7 -1.63 2.7 -1.62 2.7 -1.62 2.71 -1.62 2.71 -1.61 2.71 -1.6 2.72 -1.59 2.73 -1.58 2.73 -1.57 2.73 -1.56 2.74 -1.55 2.75 -1.54 2.75 -1.52 2.77 -1.51 5.78 -0.08zm-5.78 0.08l2.87 -1.56 2.91 1.48 -5.78 0.08zm47.13 28.18l-7.11 10.31 0.37 0.24 -1.38 -0.84 -1.37 -0.86 -1.37 -0.88 -1.36 -0.9 -1.36 -0.92 -1.34 -0.93 -1.34 -0.94 -1.32 -0.95 -1.32 -0.95 -1.33 -0.97 -1.31 -0.97 -1.3 -0.96 -1.29 -0.97 -1.29 -0.97 -1.27 -0.96 -1.27 -0.95 -1.27 -0.95 -1.25 -0.93 -1.25 -0.92 -1.23 -0.91 -1.23 -0.89 -1.23 -0.88 -1.21 -0.85 -1.2 -0.82 -1.19 -0.8 -1.18 -0.78 -1.16 -0.74 -1.16 -0.71 -1.14 -0.69 -1.12 -0.64 -1.12 -0.61 -1.09 -0.57 5.63 -11.19 1.34 0.7 1.32 0.73 1.33 0.76 1.31 0.79 1.31 0.81 1.31 0.84 1.3 0.86 1.3 0.87 1.3 0.9 1.3 0.91 1.28 0.91 1.29 0.93 1.29 0.95 1.29 0.95 1.28 0.96 1.29 0.96 1.28 0.96 1.28 0.96 1.27 0.96 1.28 0.95 1.27 0.95 1.27 0.94 1.25 0.92 1.27 0.91 1.27 0.91 1.25 0.88 1.26 0.87 1.24 0.85 1.24 0.81 1.24 0.8 1.23 0.77 1.22 0.74 0.37 0.24zm-0.37 -0.24l0.17 0.1 0.21 0.14 -0.37 -0.24zm74.41 67.02l-81.15 -56.47 7.11 -10.31 81.15 56.47 0.18 0.13 -7.29 10.18zm7.11 -10.31l0.08 0.06 0.1 0.07 -0.18 -0.13zm72.31 69.88l-12.41 1.37 0 0 -0.24 -1.37 -0.44 -1.52 -0.66 -1.65 -0.87 -1.77 -1.09 -1.87 -1.3 -1.95 -1.5 -2.01 -1.7 -2.07 -1.86 -2.11 -2.03 -2.14 -2.16 -2.16 -2.3 -2.17 -2.41 -2.19 -2.51 -2.18 -2.6 -2.18 -2.66 -2.17 -2.72 -2.15 -2.76 -2.13 -2.79 -2.1 -2.81 -2.08 -2.8 -2.04 -2.79 -2 -2.76 -1.96 -2.72 -1.91 -2.67 -1.87 -2.6 -1.81 -2.52 -1.75 -2.41 -1.68 -2.32 -1.63 -2.19 -1.56 -2.06 -1.49 -1.93 -1.42 7.47 -10.05 1.79 1.33 1.97 1.42 2.13 1.51 2.27 1.59 2.4 1.67 2.51 1.74 2.61 1.82 2.69 1.87 2.76 1.94 2.82 1.99 2.85 2.04 2.88 2.1 2.88 2.13 2.89 2.17 2.88 2.22 2.86 2.25 2.81 2.28 2.75 2.31 2.69 2.34 2.61 2.36 2.52 2.38 2.41 2.41 2.29 2.42 2.16 2.45 2.02 2.47 1.87 2.5 1.7 2.54 1.5 2.57 1.29 2.62 1.06 2.7 0.79 2.76 0.49 2.83 0 0zm-36.81 45.19l0.41 -12.53 0 0 1.34 0 1.31 -0.08 1.28 -0.16 1.24 -0.25 1.23 -0.32 1.2 -0.4 1.17 -0.47 1.15 -0.54 1.11 -0.61 1.09 -0.68 1.05 -0.75 1.03 -0.82 0.99 -0.87 0.95 -0.94 0.91 -1 0.87 -1.06 0.82 -1.11 0.77 -1.16 0.73 -1.22 0.67 -1.26 0.61 -1.3 0.56 -1.35 0.5 -1.38 0.43 -1.41 0.37 -1.45 0.31 -1.47 0.23 -1.49 0.17 -1.52 0.09 -1.53 0.02 -1.55 -0.05 -1.56 -0.14 -1.58 12.41 -1.37 0.18 2.18 0.08 2.17 -0.03 2.16 -0.13 2.14 -0.23 2.11 -0.33 2.09 -0.42 2.05 -0.51 2.02 -0.61 1.99 -0.7 1.94 -0.78 1.89 -0.87 1.85 -0.95 1.79 -1.03 1.74 -1.12 1.69 -1.2 1.62 -1.27 1.56 -1.35 1.48 -1.41 1.41 -1.49 1.33 -1.56 1.24 -1.63 1.16 -1.7 1.06 -1.76 0.97 -1.83 0.86 -1.88 0.75 -1.94 0.64 -1.99 0.52 -2.03 0.4 -2.08 0.27 -2.11 0.13 -2.13 0 0 0zm-77.89 -54.36l-12.26 -2.36 4.81 -4.94 2.83 -0.28 2.67 0.26 2.55 0.62 2.51 0.89 2.52 1.12 2.56 1.32 2.63 1.5 2.7 1.66 2.78 1.82 2.84 1.95 2.91 2.07 2.96 2.16 3.01 2.24 3.05 2.29 3.08 2.34 3.11 2.36 3.11 2.36 3.11 2.35 3.09 2.31 3.07 2.25 3.03 2.18 2.97 2.08 2.91 1.97 2.83 1.83 2.72 1.67 2.61 1.49 2.47 1.29 2.31 1.08 2.11 0.85 1.87 0.6 1.58 0.36 1.26 0.13 -0.41 12.53 -2.87 -0.29 -2.84 -0.63 -2.82 -0.9 -2.85 -1.14 -2.87 -1.34 -2.93 -1.54 -2.97 -1.7 -3.02 -1.85 -3.05 -1.98 -3.1 -2.09 -3.12 -2.19 -3.14 -2.26 -3.15 -2.32 -3.15 -2.36 -3.15 -2.37 -3.13 -2.38 -3.1 -2.35 -3.06 -2.32 -3 -2.26 -2.94 -2.18 -2.85 -2.08 -2.76 -1.96 -2.66 -1.82 -2.53 -1.66 -2.38 -1.48 -2.21 -1.26 -2.01 -1.04 -1.77 -0.79 -1.47 -0.53 -1.1 -0.27 -0.62 -0.07 -0.08 -0 4.81 -4.94zm-12.26 -2.36l0.78 -4.07 4.03 -0.87 -4.81 4.94zm18.05 9.49l-7.35 10.14 0 0 -0.62 -0.45 -0.6 -0.44 -0.57 -0.41 -0.58 -0.41 -0.56 -0.41 -0.55 -0.39 -0.52 -0.39 -0.52 -0.38 -0.54 -0.41 -0.5 -0.41 -0.51 -0.42 -0.52 -0.46 -0.49 -0.46 -0.5 -0.51 -0.5 -0.55 -0.48 -0.6 -0.46 -0.65 -0.43 -0.68 -0.38 -0.71 -0.34 -0.73 -0.31 -0.8 -0.25 -0.84 -0.19 -0.82 -0.13 -0.79 -0.08 -0.83 -0.04 -0.85 0 -0.79 0.04 -0.78 0.07 -0.81 0.1 -0.82 0.12 -0.82 0.15 -0.82 12.26 2.36 -0.09 0.53 -0.07 0.45 -0.04 0.39 -0.03 0.33 -0.01 0.3 -0 0.24 0 0.12 0.01 0.09 0.01 0.08 0 0.02 -0.01 -0.04 -0.01 -0.04 0 0 0 0.01 0.01 0.01 0.02 0.03 0.05 0.06 0.08 0.1 0.13 0.13 0.2 0.19 0.21 0.19 0.28 0.23 0.33 0.26 0.34 0.26 0.42 0.31 0.46 0.33 0.49 0.36 0.52 0.37 0.57 0.4 0.62 0.44 0.63 0.46 0.67 0.49 0 0zm66.26 51.94l-11.38 5.17 0 0 -0.4 -0.77 -0.63 -0.97 -0.84 -1.13 -1.05 -1.24 -1.24 -1.35 -1.43 -1.42 -1.59 -1.49 -1.74 -1.54 -1.87 -1.58 -2 -1.62 -2.11 -1.65 -2.2 -1.67 -2.28 -1.68 -2.34 -1.69 -2.41 -1.7 -2.45 -1.7 -2.48 -1.7 -2.49 -1.69 -2.51 -1.67 -2.5 -1.66 -2.49 -1.63 -2.46 -1.61 -2.43 -1.58 -2.37 -1.54 -2.32 -1.5 -2.24 -1.46 -2.16 -1.42 -2.07 -1.37 -1.97 -1.32 -1.85 -1.26 -1.73 -1.2 -1.6 -1.15 7.35 -10.14 1.44 1.04 1.61 1.12 1.76 1.2 1.89 1.27 2.02 1.34 2.13 1.4 2.21 1.45 2.31 1.5 2.37 1.54 2.44 1.59 2.49 1.62 2.52 1.66 2.54 1.68 2.56 1.71 2.56 1.72 2.55 1.75 2.53 1.75 2.49 1.76 2.45 1.77 2.4 1.77 2.34 1.77 2.25 1.76 2.18 1.76 2.08 1.76 1.98 1.74 1.86 1.74 1.74 1.74 1.61 1.73 1.48 1.76 1.33 1.78 1.17 1.83 1 1.92 0 0zm-39.69 58.41l2.84 -12.21 0 0 1.73 0.33 1.7 0.18 1.68 0.04 1.64 -0.08 1.61 -0.22 1.59 -0.35 1.55 -0.47 1.52 -0.59 1.49 -0.7 1.44 -0.82 1.4 -0.93 1.35 -1.04 1.28 -1.14 1.22 -1.24 1.15 -1.34 1.07 -1.42 0.99 -1.52 0.9 -1.6 0.8 -1.67 0.71 -1.74 0.6 -1.8 0.49 -1.87 0.37 -1.92 0.25 -1.97 0.12 -2.02 -0 -2.06 -0.15 -2.09 -0.29 -2.14 -0.44 -2.17 -0.59 -2.2 -0.76 -2.23 -0.93 -2.25 11.38 -5.17 1.23 2.98 1.02 2.99 0.81 2.99 0.6 2.97 0.4 2.95 0.2 2.92 0 2.88 -0.17 2.83 -0.36 2.79 -0.53 2.71 -0.69 2.65 -0.86 2.58 -1 2.49 -1.16 2.39 -1.29 2.3 -1.43 2.2 -1.57 2.09 -1.69 1.96 -1.8 1.84 -1.93 1.71 -2.03 1.57 -2.13 1.42 -2.23 1.27 -2.32 1.1 -2.4 0.93 -2.48 0.75 -2.54 0.55 -2.61 0.35 -2.65 0.14 -2.68 -0.07 -2.71 -0.3 -2.72 -0.52 0 0zm-29.45 -18.92l7.06 -10.34 0 0 0.7 0.49 0.71 0.51 0.74 0.54 0.78 0.58 0.79 0.6 0.8 0.61 0.83 0.64 0.83 0.65 0.87 0.67 0.88 0.68 0.88 0.68 0.9 0.69 0.91 0.7 0.91 0.69 0.91 0.68 0.91 0.68 0.92 0.66 0.91 0.65 0.91 0.64 0.89 0.61 0.87 0.58 0.87 0.56 0.84 0.53 0.8 0.49 0.79 0.45 0.75 0.41 0.7 0.36 0.65 0.31 0.61 0.26 0.53 0.21 0.45 0.15 0.36 0.1 -2.84 12.21 -1.1 -0.29 -1.07 -0.35 -1.04 -0.4 -1.03 -0.44 -1.03 -0.49 -1.03 -0.53 -1 -0.55 -1.01 -0.58 -1.03 -0.62 -1 -0.63 -1 -0.65 -1.02 -0.67 -1.01 -0.7 -1 -0.7 -1 -0.71 -0.99 -0.72 -0.99 -0.72 -0.98 -0.73 -0.96 -0.73 -0.94 -0.71 -0.93 -0.71 -0.92 -0.71 -0.88 -0.68 -0.86 -0.66 -0.84 -0.65 -0.8 -0.62 -0.78 -0.59 -0.73 -0.56 -0.69 -0.51 -0.65 -0.48 -0.61 -0.43 -0.54 -0.38 0 0zm-42.86 -37.89l-11.85 -3.94 5.41 -4.28 1.97 0.03 1.72 0.3 1.61 0.46 1.57 0.59 1.56 0.7 1.59 0.79 1.64 0.89 1.69 0.97 1.74 1.06 1.78 1.13 1.84 1.2 1.87 1.26 1.92 1.32 1.95 1.37 1.96 1.41 1.99 1.44 1.99 1.46 2 1.48 1.99 1.49 1.98 1.49 1.96 1.49 1.94 1.47 1.9 1.45 1.86 1.41 1.81 1.37 1.75 1.33 1.68 1.26 1.61 1.2 1.53 1.13 1.42 1.04 1.32 0.94 1.21 0.85 -7.06 10.34 -1.34 -0.94 -1.43 -1.02 -1.5 -1.1 -1.58 -1.17 -1.65 -1.23 -1.71 -1.29 -1.77 -1.34 -1.82 -1.38 -1.86 -1.42 -1.9 -1.44 -1.92 -1.46 -1.95 -1.47 -1.95 -1.47 -1.96 -1.46 -1.95 -1.45 -1.94 -1.43 -1.92 -1.39 -1.89 -1.35 -1.85 -1.3 -1.81 -1.24 -1.76 -1.19 -1.69 -1.1 -1.62 -1.02 -1.52 -0.92 -1.43 -0.83 -1.3 -0.71 -1.16 -0.58 -1 -0.45 -0.78 -0.29 -0.51 -0.15 -0.15 -0.03 0.36 -0.01 5.41 -4.28zm-11.85 -3.94l1.3 -3.94 4.11 -0.34 -5.41 4.28zm25.27 16.54l-7.76 9.82 0 0 -0.93 -0.72 -0.91 -0.66 -0.9 -0.62 -0.88 -0.59 -0.86 -0.54 -0.84 -0.51 -0.83 -0.49 -0.85 -0.49 -0.8 -0.46 -0.8 -0.45 -0.8 -0.45 -0.79 -0.45 -0.8 -0.47 -0.79 -0.49 -0.81 -0.53 -0.79 -0.58 -0.78 -0.62 -0.8 -0.72 -0.77 -0.81 -0.75 -0.93 -0.66 -1.01 -0.58 -1.11 -0.48 -1.23 -0.33 -1.23 -0.21 -1.26 -0.09 -1.27 0.02 -1.27 0.12 -1.27 0.2 -1.26 0.27 -1.27 0.34 -1.29 0.41 -1.33 11.85 3.94 -0.27 0.87 -0.2 0.77 -0.14 0.63 -0.08 0.51 -0.04 0.37 0 0.25 0 0.14 0.01 0.05 -0 -0.01 -0.04 -0.08 -0.02 -0.05 -0 -0 0.02 0.02 0.09 0.09 0.16 0.15 0.28 0.22 0.35 0.25 0.43 0.28 0.52 0.33 0.6 0.35 0.69 0.39 0.75 0.42 0.83 0.46 0.88 0.5 0.91 0.52 0.99 0.58 1.04 0.63 1.07 0.68 1.1 0.73 1.13 0.79 1.17 0.86 1.19 0.92 0 0zm21.36 16.18l-7.43 10.08 0 0 -0.65 -0.49 -0.66 -0.49 -0.65 -0.49 -0.63 -0.46 -0.67 -0.49 -0.67 -0.5 -0.64 -0.47 -0.66 -0.49 -0.67 -0.5 -0.66 -0.49 -0.67 -0.5 -0.65 -0.49 -0.66 -0.49 -0.68 -0.51 -0.67 -0.5 -0.67 -0.5 -0.66 -0.5 -0.67 -0.5 -0.7 -0.53 -0.69 -0.52 -0.68 -0.52 -0.68 -0.52 -0.69 -0.52 -0.69 -0.53 -0.7 -0.54 -0.7 -0.54 -0.71 -0.55 -0.69 -0.54 -0.71 -0.55 -0.71 -0.56 -0.71 -0.57 -0.72 -0.57 7.76 -9.82 0.69 0.55 0.69 0.54 0.69 0.54 0.68 0.54 0.69 0.54 0.68 0.53 0.67 0.52 0.67 0.52 0.67 0.51 0.68 0.52 0.67 0.51 0.68 0.52 0.66 0.5 0.65 0.49 0.67 0.5 0.67 0.5 0.66 0.5 0.67 0.5 0.65 0.49 0.66 0.49 0.67 0.5 0.65 0.48 0.66 0.49 0.65 0.49 0.66 0.48 0.67 0.5 0.64 0.48 0.65 0.47 0.68 0.51 0.65 0.49 0.65 0.48 0.66 0.49 0 0zm24.08 56.72l-11.74 -4.29 0 0 0.82 -2.44 0.64 -2.31 0.48 -2.19 0.32 -2.07 0.18 -1.96 0.05 -1.86 -0.06 -1.75 -0.17 -1.66 -0.27 -1.59 -0.37 -1.51 -0.46 -1.45 -0.53 -1.39 -0.62 -1.34 -0.69 -1.3 -0.75 -1.24 -0.83 -1.21 -0.89 -1.17 -0.95 -1.14 -1 -1.11 -1.05 -1.08 -1.08 -1.03 -1.12 -1 -1.15 -0.97 -1.16 -0.94 -1.17 -0.91 -1.18 -0.88 -1.16 -0.85 -1.16 -0.83 -1.15 -0.81 -1.12 -0.79 -1.1 -0.79 -1.06 -0.77 7.43 -10.08 0.93 0.68 1.01 0.72 1.11 0.78 1.16 0.83 1.24 0.87 1.29 0.95 1.32 0.99 1.35 1.05 1.38 1.11 1.39 1.18 1.39 1.24 1.38 1.32 1.36 1.4 1.33 1.47 1.3 1.56 1.25 1.65 1.2 1.75 1.12 1.84 1.03 1.94 0.93 2.03 0.83 2.14 0.7 2.23 0.56 2.32 0.41 2.42 0.26 2.51 0.09 2.59 -0.08 2.66 -0.25 2.74 -0.44 2.82 -0.63 2.9 -0.83 2.97 -1.01 3.04 0 0zm-57.45 14.95l7.47 -10.05 0 0 1.3 0.92 1.33 0.83 1.36 0.76 1.38 0.67 1.39 0.59 1.42 0.5 1.43 0.43 1.43 0.34 1.43 0.27 1.44 0.18 1.44 0.1 1.42 0.03 1.41 -0.05 1.4 -0.12 1.37 -0.21 1.36 -0.28 1.33 -0.35 1.3 -0.42 1.26 -0.5 1.21 -0.56 1.18 -0.64 1.15 -0.71 1.09 -0.77 1.04 -0.85 1 -0.91 0.94 -0.99 0.9 -1.07 0.83 -1.12 0.77 -1.21 0.71 -1.27 0.64 -1.36 0.58 -1.45 11.74 4.29 -0.87 2.17 -0.98 2.08 -1.1 1.99 -1.21 1.88 -1.32 1.78 -1.41 1.66 -1.49 1.57 -1.58 1.45 -1.66 1.34 -1.73 1.23 -1.79 1.11 -1.84 1 -1.9 0.88 -1.95 0.76 -1.98 0.65 -2.01 0.53 -2.03 0.42 -2.07 0.3 -2.08 0.19 -2.09 0.08 -2.1 -0.04 -2.11 -0.16 -2.11 -0.27 -2.1 -0.38 -2.08 -0.5 -2.07 -0.62 -2.04 -0.74 -2.03 -0.85 -1.99 -0.97 -1.95 -1.08 -1.91 -1.2 -1.87 -1.32 0 0zm-32.01 -30.67l-11.22 -5.5 4.13 -3.34 1.93 -0.29 1.83 0.02 1.7 0.25 1.6 0.4 1.56 0.54 1.53 0.64 1.5 0.73 1.49 0.8 1.51 0.89 1.51 0.95 1.51 1 1.54 1.07 1.54 1.12 1.54 1.15 1.55 1.2 1.55 1.23 1.54 1.24 1.54 1.26 1.53 1.27 1.51 1.28 1.49 1.27 1.46 1.25 1.44 1.24 1.4 1.21 1.36 1.17 1.32 1.13 1.26 1.08 1.21 1.02 1.15 0.95 1.08 0.87 0.99 0.79 0.9 0.69 -7.47 10.05 -1.1 -0.84 -1.14 -0.91 -1.18 -0.96 -1.22 -1.02 -1.27 -1.07 -1.31 -1.12 -1.34 -1.15 -1.37 -1.18 -1.4 -1.21 -1.41 -1.22 -1.45 -1.24 -1.45 -1.24 -1.47 -1.23 -1.46 -1.23 -1.46 -1.2 -1.46 -1.18 -1.44 -1.14 -1.42 -1.09 -1.4 -1.05 -1.36 -0.99 -1.32 -0.92 -1.28 -0.85 -1.21 -0.77 -1.14 -0.66 -1.07 -0.58 -0.96 -0.46 -0.83 -0.35 -0.68 -0.23 -0.51 -0.13 -0.28 -0.04 -0 -0 0.25 -0.04 4.13 -3.34zm-11.22 -5.5l1.29 -2.65 2.84 -0.7 -4.13 3.34zm11.29 9.03l-10.38 6.98 0.32 0.44 2.46 1.86 -0.22 -0.1 -0.04 -0.02 -0.36 -0.17 -0.32 -0.17 -0.31 -0.18 -0.37 -0.25 -0.31 -0.22 -0.45 -0.35 -0.4 -0.35 -0.42 -0.41 -0.42 -0.48 -0.38 -0.48 -0.4 -0.59 -0.34 -0.6 -0.3 -0.61 -0.3 -0.74 -0.23 -0.74 -0.17 -0.71 -0.14 -0.78 -0.08 -0.83 -0.03 -0.81 0.02 -0.81 0.07 -0.82 0.11 -0.83 0.17 -0.87 0.21 -0.87 0.26 -0.88 0.3 -0.88 0.34 -0.89 0.39 -0.93 0.44 -0.94 11.22 5.5 -0.26 0.57 -0.21 0.51 -0.18 0.47 -0.14 0.41 -0.1 0.33 -0.07 0.27 -0.04 0.21 -0.02 0.18 -0.01 0.12 0 0.07 0 0.02 -0 -0.07 -0.01 -0.06 -0.01 -0.06 -0.04 -0.13 -0.08 -0.19 -0.05 -0.1 -0.08 -0.15 -0.12 -0.18 -0.08 -0.11 -0.13 -0.15 -0.12 -0.13 -0.11 -0.09 -0.17 -0.14 -0.04 -0.04 -0.13 -0.08 -0.09 -0.06 -0.13 -0.06 -0.2 -0.1 0.07 0.04 -0.14 -0.06 2.49 1.87 0.32 0.44zm-0.32 -0.44l0.18 0.22 0.14 0.21 -0.32 -0.44zm16.07 60.36l-9.67 -7.92 0 0 1.75 -2.34 1.41 -2.23 1.09 -2.14 0.82 -2.04 0.57 -1.95 0.35 -1.88 0.15 -1.83 -0.02 -1.78 -0.2 -1.74 -0.35 -1.73 -0.5 -1.7 -0.64 -1.68 -0.77 -1.66 -0.89 -1.63 -1 -1.6 -1.09 -1.56 -1.16 -1.5 -1.23 -1.44 -1.26 -1.37 -1.29 -1.3 -1.29 -1.23 -1.27 -1.13 -1.24 -1.04 -1.19 -0.95 -1.11 -0.85 -1.02 -0.75 -0.89 -0.63 -0.77 -0.51 -0.62 -0.4 -0.48 -0.3 -0.28 -0.17 -2.04 -1.92 10.38 -6.98 -1.81 -1.79 0.37 0.24 0.57 0.36 0.79 0.51 0.95 0.65 1.1 0.77 1.22 0.89 1.33 1.01 1.41 1.13 1.49 1.26 1.54 1.37 1.57 1.49 1.59 1.61 1.58 1.72 1.57 1.84 1.52 1.96 1.45 2.07 1.37 2.2 1.26 2.32 1.14 2.44 0.97 2.57 0.79 2.69 0.56 2.8 0.32 2.9 0.04 3.01 -0.26 3.06 -0.58 3.12 -0.92 3.15 -1.26 3.15 -1.62 3.15 -1.97 3.13 -2.34 3.11 0 0zm-39.77 9.48l7.2 -10.25 -0.38 -0.25 1.02 0.58 0.98 0.49 0.93 0.4 0.9 0.32 0.86 0.25 0.85 0.19 0.81 0.13 0.79 0.08 0.76 0.03 0.75 -0.02 0.74 -0.06 0.74 -0.11 0.73 -0.15 0.73 -0.2 0.73 -0.24 0.72 -0.27 0.71 -0.31 0.71 -0.35 0.72 -0.4 0.71 -0.42 0.69 -0.46 0.68 -0.49 0.67 -0.52 0.67 -0.54 0.65 -0.57 0.64 -0.58 0.61 -0.59 0.61 -0.62 0.58 -0.62 0.56 -0.62 0.54 -0.63 0.52 -0.62 9.67 7.92 -0.67 0.81 -0.7 0.82 -0.75 0.83 -0.78 0.83 -0.81 0.82 -0.85 0.83 -0.89 0.81 -0.92 0.8 -0.96 0.79 -1 0.77 -1.04 0.74 -1.09 0.72 -1.12 0.67 -1.15 0.63 -1.21 0.61 -1.27 0.55 -1.3 0.5 -1.33 0.43 -1.38 0.37 -1.41 0.29 -1.45 0.22 -1.49 0.13 -1.53 0.04 -1.55 -0.06 -1.56 -0.16 -1.58 -0.26 -1.59 -0.36 -1.6 -0.47 -1.6 -0.58 -1.6 -0.69 -1.59 -0.8 -1.59 -0.9 -0.38 -0.25zm0.38 0.25l-0.21 -0.13 -0.17 -0.12 0.38 0.25zm-19.3 -29.04l26.12 18.54 -7.2 10.25 -26.12 -18.54 -0.25 -10.05 7.46 -0.19zm-7.2 10.25l-6.84 -4.85 6.59 -5.2 0.25 10.05zm16.96 -51.73l12.08 -3.16 0 -0 0.61 2.59 0.48 2.54 0.35 2.5 0.22 2.45 0.1 2.38 -0.02 2.34 -0.13 2.28 -0.24 2.21 -0.34 2.17 -0.45 2.11 -0.54 2.04 -0.62 1.98 -0.71 1.92 -0.77 1.86 -0.84 1.8 -0.91 1.72 -0.95 1.66 -1 1.6 -1.05 1.54 -1.08 1.48 -1.11 1.42 -1.13 1.36 -1.16 1.31 -1.16 1.25 -1.17 1.2 -1.17 1.15 -1.17 1.09 -1.16 1.04 -1.15 1 -1.13 0.95 -1.1 0.9 -1.08 0.86 -7.71 -9.86 0.96 -0.77 0.99 -0.8 0.99 -0.83 0.99 -0.86 0.99 -0.89 0.99 -0.92 0.98 -0.95 0.96 -0.98 0.94 -1.01 0.92 -1.04 0.9 -1.08 0.87 -1.11 0.83 -1.14 0.8 -1.17 0.75 -1.2 0.71 -1.23 0.66 -1.28 0.61 -1.29 0.56 -1.34 0.5 -1.37 0.45 -1.42 0.38 -1.46 0.31 -1.49 0.25 -1.55 0.17 -1.61 0.1 -1.65 0.01 -1.7 -0.08 -1.78 -0.17 -1.84 -0.26 -1.89 -0.37 -1.97 -0.48 -2.04 0 -0zm-11.19 -17.03l7.94 -9.67 -0 -0 0.56 0.47 0.54 0.47 0.56 0.5 0.56 0.52 0.55 0.53 0.57 0.56 0.55 0.57 0.56 0.59 0.55 0.61 0.55 0.62 0.54 0.64 0.54 0.65 0.55 0.69 0.52 0.68 0.54 0.71 0.53 0.75 0.5 0.74 0.5 0.76 0.5 0.79 0.48 0.8 0.47 0.81 0.45 0.83 0.45 0.84 0.43 0.88 0.41 0.88 0.4 0.9 0.38 0.92 0.36 0.92 0.34 0.95 0.32 0.96 0.3 0.99 0.27 1 -12.08 3.16 -0.18 -0.68 -0.2 -0.66 -0.22 -0.66 -0.24 -0.66 -0.25 -0.66 -0.26 -0.64 -0.28 -0.64 -0.3 -0.64 -0.3 -0.6 -0.32 -0.62 -0.33 -0.61 -0.34 -0.6 -0.35 -0.58 -0.36 -0.57 -0.37 -0.57 -0.39 -0.56 -0.37 -0.53 -0.39 -0.53 -0.41 -0.53 -0.4 -0.5 -0.41 -0.5 -0.41 -0.49 -0.42 -0.47 -0.41 -0.45 -0.41 -0.44 -0.42 -0.43 -0.4 -0.4 -0.42 -0.4 -0.4 -0.38 -0.41 -0.36 -0.41 -0.36 -0.38 -0.32 -0 -0zm-25.19 -15.82l11.81 4.08 -3.68 -7.9 0.75 0.28 0.73 0.25 0.71 0.23 0.67 0.2 0.69 0.19 0.65 0.17 0.64 0.15 0.64 0.14 0.66 0.14 0.65 0.13 0.64 0.12 0.68 0.13 0.69 0.13 0.71 0.14 0.72 0.16 0.73 0.17 0.76 0.18 0.79 0.21 0.79 0.24 0.83 0.26 0.84 0.3 0.84 0.33 0.87 0.37 0.87 0.41 0.9 0.46 0.9 0.5 0.9 0.53 0.93 0.59 0.94 0.64 0.95 0.69 0.95 0.74 0.98 0.79 -7.94 9.67 -0.73 -0.59 -0.71 -0.54 -0.66 -0.48 -0.62 -0.42 -0.6 -0.38 -0.58 -0.35 -0.54 -0.3 -0.52 -0.26 -0.52 -0.24 -0.49 -0.21 -0.5 -0.2 -0.48 -0.17 -0.48 -0.16 -0.51 -0.15 -0.5 -0.13 -0.53 -0.13 -0.56 -0.13 -0.58 -0.12 -0.61 -0.12 -0.63 -0.12 -0.66 -0.12 -0.72 -0.14 -0.74 -0.15 -0.76 -0.16 -0.8 -0.18 -0.84 -0.2 -0.87 -0.22 -0.88 -0.24 -0.94 -0.28 -0.96 -0.31 -1 -0.34 -1.02 -0.38 -3.68 -7.9zm3.68 7.9l-5.64 -2.16 1.97 -5.73 3.68 7.9zm-56.64 -58.23l12.33 -1.96 -8.87 -4.67 3.96 -1.76 3.92 -1.47 3.87 -1.16 3.81 -0.87 3.74 -0.58 3.68 -0.29 3.6 -0 3.51 0.28 3.4 0.56 3.29 0.83 3.16 1.1 3.02 1.36 2.86 1.6 2.71 1.84 2.53 2.07 2.34 2.27 2.15 2.47 1.95 2.66 1.74 2.82 1.53 2.99 1.31 3.13 1.09 3.27 0.87 3.39 0.64 3.5 0.41 3.61 0.18 3.7 -0.05 3.79 -0.29 3.87 -0.54 3.94 -0.78 4 -1.04 4.05 -1.28 4.09 -11.81 -4.08 1.08 -3.46 0.86 -3.37 0.65 -3.3 0.44 -3.2 0.23 -3.11 0.04 -3 -0.14 -2.9 -0.32 -2.78 -0.49 -2.66 -0.65 -2.53 -0.8 -2.4 -0.95 -2.26 -1.08 -2.12 -1.22 -1.98 -1.33 -1.82 -1.46 -1.68 -1.58 -1.54 -1.68 -1.38 -1.8 -1.22 -1.92 -1.07 -2.02 -0.91 -2.14 -0.74 -2.26 -0.57 -2.37 -0.39 -2.49 -0.2 -2.61 0 -2.74 0.22 -2.85 0.44 -2.96 0.68 -3.07 0.92 -3.18 1.19 -3.28 1.46 -8.87 -4.67zm8.87 4.67l-7.56 3.64 -1.31 -8.31 8.87 4.67zm-77.96 -30.41l12.4 -1.51 -10.52 -3.77 2.55 -2.35 2.63 -2.21 2.7 -2.06 2.76 -1.9 2.82 -1.74 2.87 -1.57 2.92 -1.39 2.96 -1.21 3 -1.02 3.02 -0.82 3.04 -0.62 3.07 -0.4 3.07 -0.17 3.07 0.06 3.05 0.31 3.03 0.57 2.99 0.84 2.91 1.11 2.83 1.38 2.74 1.66 2.63 1.94 2.5 2.2 2.36 2.48 2.21 2.74 2.06 2.99 1.9 3.25 1.74 3.51 1.58 3.77 1.4 4.03 1.22 4.29 1.06 4.56 0.87 4.83 -12.33 1.96 -0.77 -4.26 -0.91 -3.95 -1.04 -3.64 -1.16 -3.33 -1.27 -3.05 -1.36 -2.76 -1.45 -2.48 -1.52 -2.21 -1.58 -1.96 -1.63 -1.71 -1.69 -1.49 -1.73 -1.28 -1.77 -1.07 -1.83 -0.89 -1.87 -0.71 -1.91 -0.54 -1.97 -0.37 -2.03 -0.21 -2.08 -0.04 -2.13 0.12 -2.17 0.29 -2.21 0.45 -2.26 0.62 -2.27 0.77 -2.29 0.94 -2.29 1.1 -2.28 1.25 -2.28 1.41 -2.25 1.55 -2.22 1.69 -2.18 1.83 -2.13 1.96 -10.52 -3.77zm10.52 3.77l-9.01 8.69 -1.51 -12.46 10.52 3.77zm-35 -37.2l2.36 -12.32 0 0 1.96 0.43 1.91 0.53 1.87 0.62 1.81 0.71 1.75 0.79 1.69 0.87 1.63 0.95 1.58 1.03 1.51 1.1 1.45 1.16 1.39 1.23 1.33 1.29 1.27 1.34 1.2 1.4 1.14 1.45 1.08 1.49 1.02 1.53 0.97 1.58 0.9 1.6 0.85 1.64 0.8 1.67 0.75 1.7 0.69 1.73 0.64 1.74 0.59 1.78 0.54 1.79 0.49 1.82 0.44 1.83 0.39 1.83 0.34 1.85 0.3 1.87 0.25 1.87 -12.4 1.51 -0.21 -1.56 -0.25 -1.54 -0.29 -1.54 -0.33 -1.53 -0.36 -1.5 -0.39 -1.47 -0.44 -1.45 -0.47 -1.42 -0.51 -1.4 -0.54 -1.37 -0.58 -1.33 -0.61 -1.3 -0.66 -1.25 -0.69 -1.22 -0.72 -1.17 -0.75 -1.13 -0.78 -1.08 -0.82 -1.04 -0.85 -0.99 -0.88 -0.94 -0.91 -0.89 -0.95 -0.84 -0.98 -0.79 -1.01 -0.74 -1.04 -0.68 -1.08 -0.63 -1.12 -0.58 -1.16 -0.53 -1.2 -0.47 -1.24 -0.41 -1.3 -0.36 -1.34 -0.29 0 0zm-51.43 16.4l12.04 -3.34 -9.68 -3.41 1.03 -0.77 1.03 -0.82 1.03 -0.86 1.05 -0.91 1.06 -0.95 1.08 -0.99 1.11 -1.02 1.13 -1.04 1.16 -1.05 1.17 -1.06 1.22 -1.08 1.26 -1.08 1.3 -1.07 1.33 -1.05 1.4 -1.04 1.46 -1.02 1.51 -0.98 1.57 -0.94 1.64 -0.88 1.71 -0.83 1.78 -0.76 1.86 -0.68 1.94 -0.6 2 -0.5 2.07 -0.4 2.16 -0.3 2.21 -0.18 2.28 -0.07 2.36 0.05 2.44 0.18 2.51 0.31 2.57 0.44 -2.36 12.32 -2.03 -0.35 -1.92 -0.24 -1.81 -0.13 -1.72 -0.04 -1.63 0.05 -1.55 0.13 -1.48 0.2 -1.41 0.28 -1.35 0.34 -1.29 0.4 -1.26 0.47 -1.22 0.52 -1.19 0.58 -1.17 0.63 -1.14 0.68 -1.13 0.73 -1.11 0.78 -1.1 0.83 -1.11 0.87 -1.09 0.9 -1.09 0.93 -1.09 0.97 -1.11 1 -1.11 1.02 -1.11 1.03 -1.13 1.04 -1.15 1.05 -1.18 1.05 -1.2 1.04 -1.24 1.04 -1.28 1.01 -1.31 0.99 -9.68 -3.41zm9.68 3.41l-7.29 5.29 -2.39 -8.71 9.68 3.41zm433.59 -137.03l12.03 -3.36 0 0 1.14 4.32 1 4.22 0.87 4.11 0.74 4.02 0.62 3.93 0.49 3.86 0.37 3.77 0.27 3.7 0.15 3.64 0.05 3.56 -0.04 3.51 -0.14 3.46 -0.22 3.41 -0.3 3.37 -0.38 3.33 -0.45 3.3 -0.51 3.28 -0.57 3.26 -0.62 3.24 -0.67 3.24 -0.72 3.24 -0.75 3.24 -0.78 3.25 -0.81 3.28 -0.83 3.3 -0.84 3.35 -0.86 3.38 -0.86 3.42 -0.87 3.49 -0.87 3.55 -0.86 3.61 -0.84 3.7 -12.18 -2.76 0.87 -3.8 0.87 -3.7 0.88 -3.61 0.87 -3.53 0.87 -3.46 0.86 -3.39 0.84 -3.32 0.82 -3.26 0.79 -3.21 0.76 -3.17 0.72 -3.13 0.68 -3.09 0.63 -3.07 0.59 -3.06 0.54 -3.04 0.47 -3.03 0.41 -3.04 0.34 -3.05 0.28 -3.07 0.2 -3.09 0.12 -3.13 0.04 -3.17 -0.04 -3.22 -0.14 -3.27 -0.24 -3.34 -0.34 -3.43 -0.45 -3.5 -0.56 -3.59 -0.68 -3.69 -0.8 -3.8 -0.93 -3.91 -1.06 -4.04 0 0zm-49.17 -68.89l7.31 -10.16 0 0 2 1.47 2.01 1.52 2.01 1.57 2 1.62 2.01 1.66 1.99 1.71 1.99 1.76 1.98 1.82 1.95 1.87 1.95 1.92 1.93 1.99 1.91 2.03 1.88 2.09 1.86 2.16 1.83 2.22 1.8 2.28 1.77 2.35 1.73 2.41 1.7 2.47 1.66 2.55 1.61 2.61 1.57 2.69 1.52 2.75 1.47 2.83 1.42 2.9 1.37 2.98 1.31 3.05 1.25 3.13 1.2 3.2 1.13 3.29 1.06 3.36 1 3.44 -12.03 3.36 -0.91 -3.15 -0.97 -3.07 -1.03 -2.99 -1.09 -2.91 -1.14 -2.84 -1.19 -2.76 -1.24 -2.7 -1.28 -2.62 -1.34 -2.55 -1.37 -2.49 -1.42 -2.42 -1.46 -2.36 -1.49 -2.29 -1.54 -2.24 -1.56 -2.18 -1.6 -2.12 -1.63 -2.07 -1.66 -2.01 -1.68 -1.95 -1.71 -1.91 -1.74 -1.86 -1.75 -1.8 -1.78 -1.76 -1.8 -1.71 -1.81 -1.66 -1.83 -1.62 -1.84 -1.58 -1.85 -1.54 -1.86 -1.49 -1.86 -1.45 -1.87 -1.41 -1.88 -1.38 0 0zm-194.62 -20.04l3.22 -12.12 0 0 2.45 0.5 2.8 0.25 3.15 0.01 3.48 -0.24 3.78 -0.46 4.09 -0.66 4.36 -0.83 4.61 -0.97 4.87 -1.08 5.11 -1.16 5.33 -1.2 5.56 -1.2 5.78 -1.17 5.99 -1.11 6.19 -1.01 6.39 -0.87 6.6 -0.7 6.78 -0.5 6.97 -0.25 7.15 0.03 7.32 0.34 7.49 0.69 7.65 1.08 7.8 1.49 7.95 1.95 8.08 2.43 8.21 2.95 8.34 3.51 8.45 4.09 8.56 4.71 8.66 5.35 8.76 6.03 -7.31 10.16 -8.26 -5.68 -8.13 -5.03 -8 -4.4 -7.86 -3.81 -7.73 -3.25 -7.59 -2.73 -7.46 -2.24 -7.32 -1.8 -7.18 -1.37 -7.05 -0.99 -6.91 -0.63 -6.77 -0.31 -6.64 -0.03 -6.49 0.24 -6.35 0.47 -6.2 0.66 -6.06 0.83 -5.91 0.96 -5.75 1.06 -5.6 1.14 -5.43 1.17 -5.28 1.18 -5.12 1.16 -4.96 1.11 -4.8 1.01 -4.64 0.88 -4.5 0.73 -4.36 0.53 -4.23 0.28 -4.12 -0.01 -4.01 -0.37 -3.9 -0.79 0 0zm-173.96 46.35l-9.28 -8.38 0 -0 4.07 -4.46 4.15 -4.33 4.21 -4.19 4.29 -4.05 4.36 -3.9 4.45 -3.74 4.55 -3.59 4.64 -3.42 4.74 -3.25 4.85 -3.08 4.96 -2.89 5.08 -2.7 5.2 -2.51 5.32 -2.3 5.45 -2.11 5.59 -1.89 5.72 -1.67 5.87 -1.45 6 -1.23 6.16 -0.99 6.3 -0.75 6.46 -0.52 6.62 -0.27 6.78 -0.02 6.94 0.23 7.12 0.49 7.3 0.75 7.47 1.01 7.66 1.27 7.86 1.55 8.05 1.83 8.26 2.1 -3.22 12.12 -7.94 -2.03 -7.72 -1.75 -7.5 -1.48 -7.3 -1.22 -7.09 -0.96 -6.89 -0.7 -6.69 -0.46 -6.51 -0.21 -6.31 0.02 -6.14 0.25 -5.97 0.47 -5.81 0.7 -5.65 0.91 -5.5 1.12 -5.36 1.33 -5.22 1.53 -5.1 1.72 -4.97 1.92 -4.86 2.11 -4.74 2.29 -4.65 2.48 -4.55 2.65 -4.47 2.83 -4.37 3 -4.31 3.18 -4.23 3.34 -4.16 3.5 -4.1 3.66 -4.04 3.82 -3.98 3.97 -3.94 4.11 -3.9 4.26 0 -0zm-37.25 81.1l-12.38 -1.66 0 0 0.49 -3.4 0.56 -3.37 0.62 -3.32 0.68 -3.29 0.75 -3.24 0.79 -3.2 0.86 -3.17 0.91 -3.12 0.96 -3.08 1.03 -3.04 1.07 -2.99 1.12 -2.95 1.17 -2.91 1.21 -2.87 1.26 -2.83 1.31 -2.78 1.35 -2.73 1.39 -2.7 1.43 -2.65 1.46 -2.6 1.5 -2.55 1.53 -2.51 1.57 -2.47 1.6 -2.42 1.62 -2.36 1.66 -2.32 1.69 -2.28 1.71 -2.23 1.73 -2.18 1.75 -2.13 1.78 -2.08 1.79 -2.04 9.28 8.38 -1.65 1.88 -1.63 1.92 -1.62 1.97 -1.6 2.02 -1.58 2.05 -1.55 2.11 -1.53 2.15 -1.5 2.19 -1.48 2.23 -1.45 2.27 -1.41 2.32 -1.39 2.36 -1.35 2.4 -1.32 2.44 -1.28 2.48 -1.24 2.53 -1.21 2.57 -1.16 2.61 -1.12 2.65 -1.08 2.69 -1.04 2.73 -0.99 2.77 -0.95 2.8 -0.89 2.84 -0.84 2.89 -0.79 2.92 -0.74 2.96 -0.68 3 -0.63 3.03 -0.57 3.07 -0.51 3.11 -0.45 3.15 0 0zm14.94 108.2l-6.73 -10.57 -2.58 7.2 -1.15 -3.53 -1.14 -3.41 -1.13 -3.29 -1.12 -3.19 -1.11 -3.1 -1.09 -3.02 -1.08 -2.96 -1.06 -2.91 -1.03 -2.86 -1 -2.83 -0.97 -2.82 -0.94 -2.81 -0.9 -2.82 -0.86 -2.83 -0.81 -2.86 -0.76 -2.89 -0.7 -2.92 -0.64 -2.99 -0.58 -3.05 -0.51 -3.11 -0.43 -3.19 -0.36 -3.28 -0.28 -3.39 -0.19 -3.49 -0.11 -3.6 -0.02 -3.73 0.08 -3.87 0.17 -4.01 0.27 -4.17 0.37 -4.33 0.48 -4.52 0.58 -4.7 12.38 1.66 -0.56 4.48 -0.45 4.28 -0.35 4.08 -0.25 3.9 -0.16 3.73 -0.07 3.57 0.02 3.42 0.1 3.29 0.17 3.16 0.25 3.05 0.32 2.95 0.39 2.86 0.46 2.79 0.51 2.74 0.58 2.69 0.64 2.66 0.69 2.64 0.75 2.62 0.79 2.62 0.85 2.65 0.89 2.67 0.94 2.71 0.98 2.76 1.01 2.81 1.05 2.88 1.08 2.97 1.11 3.06 1.13 3.15 1.15 3.26 1.16 3.39 1.18 3.51 1.18 3.65 -2.58 7.2zm2.58 -7.2l1.47 4.6 -4.05 2.6 2.58 -7.2zm18.15 83.35l-12.31 -2.1 6.76 7.29 -5.04 0.31 -4.85 -0.06 -4.66 -0.41 -4.45 -0.76 -4.24 -1.09 -4.02 -1.42 -3.77 -1.73 -3.53 -2.03 -3.25 -2.3 -2.97 -2.57 -2.69 -2.81 -2.38 -3.03 -2.06 -3.23 -1.74 -3.4 -1.41 -3.56 -1.07 -3.68 -0.74 -3.78 -0.4 -3.88 -0.04 -3.94 0.3 -3.98 0.65 -4 1 -4.01 1.35 -4 1.7 -3.97 2.05 -3.91 2.41 -3.85 2.77 -3.77 3.12 -3.68 3.48 -3.55 3.84 -3.43 4.19 -3.28 4.56 -3.13 6.73 10.57 -3.92 2.7 -3.57 2.79 -3.22 2.88 -2.88 2.95 -2.55 3 -2.22 3.03 -1.91 3.06 -1.61 3.06 -1.31 3.06 -1.03 3.03 -0.75 3 -0.48 2.95 -0.22 2.9 0.04 2.82 0.28 2.74 0.52 2.66 0.75 2.56 0.97 2.44 1.2 2.33 1.41 2.21 1.63 2.07 1.85 1.94 2.07 1.78 2.28 1.62 2.51 1.45 2.74 1.26 2.97 1.05 3.21 0.83 3.44 0.58 3.69 0.33 3.92 0.04 4.16 -0.26 6.76 7.29zm-6.76 -7.29l8.12 -0.79 -1.37 8.08 -6.76 -7.29zm63.63 49.25l-12.45 0.91 8.59 5.35 -3.32 1.26 -3.32 1.06 -3.31 0.87 -3.29 0.67 -3.27 0.47 -3.24 0.28 -3.2 0.09 -3.17 -0.11 -3.11 -0.3 -3.04 -0.49 -2.99 -0.68 -2.91 -0.88 -2.82 -1.07 -2.72 -1.25 -2.63 -1.45 -2.5 -1.63 -2.37 -1.81 -2.24 -2 -2.08 -2.16 -1.93 -2.33 -1.76 -2.51 -1.58 -2.66 -1.39 -2.8 -1.2 -2.95 -1 -3.09 -0.79 -3.22 -0.57 -3.33 -0.36 -3.44 -0.14 -3.56 0.08 -3.66 0.31 -3.77 0.54 -3.87 12.31 2.1 -0.45 3.17 -0.25 3.03 -0.07 2.9 0.11 2.77 0.28 2.62 0.43 2.49 0.58 2.35 0.71 2.21 0.85 2.08 0.97 1.96 1.09 1.84 1.2 1.7 1.32 1.59 1.42 1.48 1.52 1.36 1.63 1.24 1.72 1.13 1.82 1 1.92 0.88 2.01 0.76 2.09 0.63 2.18 0.5 2.26 0.37 2.33 0.23 2.39 0.08 2.46 -0.07 2.52 -0.22 2.57 -0.37 2.61 -0.53 2.65 -0.7 2.68 -0.86 2.71 -1.03 8.59 5.35zm-8.59 -5.35l7.96 -3.26 0.62 8.61 -8.59 -5.35zm74.19 27.4l-10.5 6.77 10.31 0.29 -2.35 3.03 -2.49 2.78 -2.63 2.51 -2.74 2.25 -2.86 1.99 -2.95 1.71 -3.03 1.44 -3.09 1.17 -3.14 0.9 -3.17 0.63 -3.19 0.37 -3.19 0.09 -3.18 -0.17 -3.15 -0.42 -3.11 -0.68 -3.05 -0.93 -2.99 -1.18 -2.89 -1.42 -2.8 -1.65 -2.69 -1.9 -2.56 -2.12 -2.42 -2.34 -2.28 -2.55 -2.12 -2.77 -1.95 -2.97 -1.76 -3.17 -1.56 -3.36 -1.36 -3.55 -1.14 -3.72 -0.92 -3.9 -0.68 -4.06 -0.44 -4.23 12.45 -0.91 0.36 3.45 0.55 3.28 0.72 3.09 0.9 2.91 1.04 2.74 1.19 2.55 1.32 2.38 1.44 2.2 1.55 2.03 1.65 1.86 1.74 1.68 1.82 1.5 1.89 1.33 1.96 1.16 2.01 0.99 2.05 0.81 2.09 0.64 2.12 0.46 2.14 0.29 2.16 0.11 2.16 -0.07 2.17 -0.25 2.16 -0.43 2.15 -0.62 2.13 -0.81 2.11 -1 2.08 -1.2 2.03 -1.41 2 -1.63 1.94 -1.85 1.88 -2.08 1.8 -2.32 10.31 0.29zm-10.31 -0.29l5.36 -7.46 4.95 7.74 -10.31 -0.29zm11.81 3.57l-11.92 3.72 0.13 0.39 -0.04 -0.11 0.04 0.12 -0.02 -0.04 -0.06 -0.14 -0.05 -0.14 -0.02 -0.05 0.04 0.09 0.03 0.07 -0.13 -0.34 -0.02 -0.06 0.06 0.15 -0.05 -0.14 0.05 0.14 -0.06 -0.14 -0.02 -0.06 0 0.02 -0.05 -0.14 0.02 0.04 0 0.01 -0.03 -0.06 0.05 0.11 -0.03 -0.06 -0.03 -0.06 0.01 0.03 -0.03 -0.06 0.05 0.11 -0.12 -0.22 0.02 0.03 0.21 0.38 -0.04 -0.05 -0.13 -0.22 0.1 0.17 10.5 -6.77 0.17 0.27 -0.07 -0.11 0.04 0.05 0.28 0.49 0.07 0.14 -0.05 -0.11 0.12 0.22 0.03 0.06 0.08 0.14 0.03 0.06 0.03 0.06 0.11 0.24 0.03 0.06 0.06 0.14 0.07 0.17 -0.01 -0.02 0.06 0.14 0.02 0.06 -0 -0.02 0.1 0.25 -0.01 -0.02 0.1 0.26 0.02 0.06 -0.09 -0.23 0.07 0.18 0.07 0.19 0.02 0.05 -0.01 -0.04 -0.02 -0.05 0.02 0.04 0.08 0.21 -0.01 -0.03 0.13 0.39zm-0.13 -0.39l0.07 0.19 0.06 0.2 -0.13 -0.39zm-8.35 15.23l-3.44 -11.12 11.92 -3.72 3.44 11.12 0.01 0.04 -11.94 3.68zm11.92 -3.72l0.01 0.04 -0.02 -0.05 0 0.01zm4.4 9.59l-10.16 7.29 0 0 -0.26 -0.37 -0.27 -0.39 -0.25 -0.38 -0.25 -0.37 -0.23 -0.36 -0.25 -0.39 -0.25 -0.4 -0.21 -0.35 -0.22 -0.37 -0.21 -0.37 -0.22 -0.4 -0.21 -0.39 -0.2 -0.38 -0.2 -0.4 -0.19 -0.38 -0.2 -0.42 -0.18 -0.41 -0.17 -0.37 -0.18 -0.42 -0.17 -0.41 -0.17 -0.43 -0.16 -0.41 -0.16 -0.42 -0.17 -0.45 -0.16 -0.44 -0.16 -0.45 -0.15 -0.46 -0.16 -0.47 -0.15 -0.46 -0.15 -0.48 -0.16 -0.5 -0.15 -0.5 11.95 -3.63 0.13 0.45 0.13 0.42 0.14 0.42 0.13 0.41 0.12 0.37 0.12 0.36 0.12 0.35 0.12 0.33 0.11 0.31 0.12 0.33 0.12 0.31 0.12 0.29 0.11 0.28 0.12 0.27 0.13 0.29 0.11 0.25 0.12 0.24 0.12 0.26 0.12 0.25 0.13 0.25 0.12 0.23 0.12 0.22 0.15 0.25 0.15 0.25 0.17 0.27 0.14 0.24 0.15 0.23 0.18 0.27 0.18 0.28 0.18 0.27 0.18 0.26 0.21 0.3 0 0zm61.29 -2.47l-7.34 10.14 7.11 0.16 -0.36 0.26 -0.65 0.5 -0.87 0.69 -1.04 0.83 -1.21 0.96 -1.36 1.05 -1.49 1.12 -1.62 1.19 -1.75 1.22 -1.86 1.23 -1.97 1.23 -2.09 1.22 -2.19 1.17 -2.28 1.12 -2.4 1.04 -2.49 0.95 -2.58 0.82 -2.66 0.68 -2.75 0.52 -2.83 0.32 -2.91 0.1 -2.96 -0.14 -3 -0.41 -3.03 -0.7 -3.03 -1.01 -3.01 -1.33 -2.97 -1.66 -2.92 -2 -2.85 -2.34 -2.77 -2.7 -2.69 -3.05 -2.61 -3.42 10.16 -7.29 2.1 2.75 2.07 2.36 2.07 2 2.03 1.67 1.99 1.37 1.96 1.09 1.93 0.86 1.91 0.63 1.9 0.44 1.9 0.26 1.9 0.08 1.91 -0.07 1.91 -0.22 1.92 -0.36 1.92 -0.49 1.91 -0.61 1.89 -0.71 1.86 -0.81 1.83 -0.9 1.79 -0.96 1.72 -1 1.67 -1.04 1.6 -1.06 1.52 -1.06 1.43 -1.04 1.34 -1.02 1.24 -0.96 1.14 -0.9 1.06 -0.84 0.95 -0.76 0.89 -0.68 0.9 -0.63 7.11 0.16zm-7.11 -0.16l3.61 -2.4 3.5 2.56 -7.11 -0.16zm21.67 26.31l-21.91 -16.01 7.34 -10.14 21.91 16.01 0.01 0.01 -7.36 10.13zm7.34 -10.14l0.01 0.01 0.28 0.21 -0.29 -0.21zm57.6 -41.59l-5.26 11.37 8.8 -6.61 0.47 3.97 0.23 3.89 -0.02 3.81 -0.25 3.7 -0.47 3.61 -0.69 3.5 -0.9 3.38 -1.11 3.26 -1.31 3.12 -1.49 2.97 -1.69 2.83 -1.86 2.67 -2.03 2.49 -2.19 2.31 -2.35 2.13 -2.49 1.93 -2.62 1.73 -2.76 1.5 -2.86 1.28 -2.97 1.04 -3.06 0.8 -3.14 0.55 -3.21 0.29 -3.26 0.02 -3.3 -0.25 -3.33 -0.53 -3.33 -0.8 -3.34 -1.08 -3.33 -1.37 -3.31 -1.65 -3.28 -1.93 -3.24 -2.22 7.37 -10.12 2.56 1.75 2.53 1.49 2.51 1.25 2.47 1.01 2.44 0.79 2.39 0.58 2.34 0.37 2.29 0.17 2.24 -0.02 2.18 -0.19 2.12 -0.37 2.07 -0.54 2.01 -0.71 1.94 -0.87 1.87 -1.02 1.79 -1.18 1.72 -1.33 1.63 -1.49 1.55 -1.63 1.45 -1.77 1.33 -1.91 1.22 -2.05 1.1 -2.2 0.97 -2.32 0.83 -2.44 0.69 -2.57 0.53 -2.7 0.37 -2.8 0.19 -2.92 0.01 -3.03 -0.18 -3.13 -0.38 -3.23 8.8 -6.61zm-8.8 6.61l-1.7 -11.51 10.51 4.9 -8.8 6.61zm52.23 -0.65l7 10.39 0 0 -2.25 1.46 -2.24 1.3 -2.21 1.14 -2.19 0.99 -2.17 0.83 -2.15 0.69 -2.13 0.54 -2.1 0.4 -2.07 0.26 -2.03 0.12 -1.99 0 -1.96 -0.12 -1.91 -0.23 -1.85 -0.32 -1.8 -0.41 -1.76 -0.49 -1.7 -0.56 -1.66 -0.61 -1.62 -0.66 -1.56 -0.7 -1.53 -0.73 -1.49 -0.75 -1.46 -0.76 -1.43 -0.78 -1.39 -0.77 -1.35 -0.76 -1.33 -0.75 -1.32 -0.73 -1.29 -0.71 -1.26 -0.66 -1.24 -0.63 -1.21 -0.59 5.26 -11.37 1.48 0.71 1.45 0.73 1.42 0.75 1.4 0.76 1.37 0.76 1.35 0.75 1.34 0.75 1.32 0.73 1.29 0.71 1.29 0.67 1.27 0.64 1.26 0.59 1.26 0.56 1.23 0.51 1.23 0.45 1.22 0.4 1.21 0.33 1.21 0.28 1.22 0.21 1.21 0.14 1.22 0.07 1.25 0 1.27 -0.07 1.29 -0.16 1.35 -0.25 1.38 -0.35 1.44 -0.46 1.51 -0.58 1.57 -0.71 1.64 -0.84 1.7 -0.99 1.78 -1.16 0 0zm23.72 -49.9l-3.78 11.95 8.08 -6.79 0.29 2.47 0.23 2.41 0.16 2.37 0.09 2.31 0.03 2.26 -0.04 2.22 -0.1 2.16 -0.17 2.12 -0.24 2.08 -0.3 2.02 -0.36 1.98 -0.42 1.93 -0.49 1.9 -0.55 1.84 -0.61 1.79 -0.68 1.75 -0.73 1.7 -0.79 1.66 -0.85 1.61 -0.91 1.56 -0.96 1.51 -1.01 1.45 -1.06 1.41 -1.12 1.37 -1.16 1.31 -1.2 1.27 -1.25 1.23 -1.29 1.18 -1.33 1.13 -1.36 1.08 -1.41 1.05 -1.43 1 -7 -10.39 1.13 -0.79 1.08 -0.81 1.05 -0.84 1.01 -0.86 0.97 -0.88 0.93 -0.91 0.89 -0.95 0.85 -0.96 0.81 -0.99 0.77 -1.02 0.74 -1.06 0.7 -1.09 0.65 -1.12 0.62 -1.16 0.58 -1.2 0.54 -1.24 0.5 -1.29 0.45 -1.33 0.42 -1.39 0.37 -1.42 0.33 -1.49 0.29 -1.55 0.24 -1.6 0.18 -1.65 0.14 -1.72 0.08 -1.78 0.03 -1.83 -0.03 -1.91 -0.08 -1.97 -0.14 -2.03 -0.19 -2.09 -0.26 -2.16 8.08 -6.79zm-8.08 6.79l-1.28 -9.78 9.36 2.99 -8.08 6.79zm48.07 -16.1l10.12 7.34 0 0 -1.05 1.39 -1.11 1.33 -1.16 1.28 -1.23 1.23 -1.28 1.17 -1.33 1.11 -1.38 1.05 -1.43 0.99 -1.47 0.93 -1.51 0.87 -1.56 0.81 -1.61 0.75 -1.65 0.69 -1.67 0.62 -1.7 0.55 -1.75 0.5 -1.77 0.42 -1.8 0.37 -1.84 0.29 -1.85 0.23 -1.88 0.16 -1.91 0.09 -1.93 0.03 -1.94 -0.04 -1.96 -0.11 -1.99 -0.18 -1.99 -0.25 -2 -0.33 -2.03 -0.4 -2.03 -0.47 -2.04 -0.54 -2.04 -0.62 3.78 -11.95 1.67 0.5 1.65 0.45 1.62 0.37 1.61 0.32 1.59 0.25 1.58 0.2 1.55 0.15 1.53 0.08 1.5 0.04 1.48 -0.02 1.45 -0.08 1.43 -0.12 1.4 -0.17 1.37 -0.22 1.34 -0.27 1.31 -0.32 1.27 -0.36 1.24 -0.41 1.21 -0.44 1.16 -0.49 1.13 -0.53 1.09 -0.57 1.07 -0.61 1.03 -0.65 0.98 -0.68 0.95 -0.72 0.9 -0.75 0.86 -0.79 0.81 -0.82 0.78 -0.86 0.74 -0.89 0.69 -0.91 0 0zm10.38 -51.35l0.31 12.54 5.99 -7.34 0.31 1.76 0.3 1.74 0.3 1.7 0.29 1.7 0.28 1.68 0.26 1.67 0.25 1.66 0.23 1.66 0.21 1.65 0.18 1.64 0.15 1.63 0.12 1.64 0.08 1.64 0.05 1.64 0 1.65 -0.04 1.65 -0.09 1.65 -0.15 1.66 -0.21 1.66 -0.26 1.66 -0.33 1.67 -0.39 1.67 -0.47 1.67 -0.54 1.68 -0.62 1.69 -0.68 1.67 -0.77 1.69 -0.85 1.68 -0.92 1.67 -1 1.68 -1.09 1.69 -1.17 1.69 -10.12 -7.34 0.94 -1.35 0.85 -1.33 0.78 -1.3 0.71 -1.28 0.63 -1.25 0.56 -1.24 0.5 -1.23 0.45 -1.21 0.38 -1.2 0.33 -1.21 0.29 -1.2 0.24 -1.21 0.19 -1.22 0.15 -1.23 0.11 -1.24 0.07 -1.26 0.04 -1.28 -0 -1.29 -0.04 -1.33 -0.07 -1.35 -0.11 -1.37 -0.13 -1.42 -0.16 -1.45 -0.19 -1.47 -0.21 -1.5 -0.23 -1.54 -0.25 -1.58 -0.27 -1.62 -0.28 -1.65 -0.29 -1.7 -0.3 -1.73 -0.31 -1.76 5.99 -7.34zm-5.99 7.34l-1.24 -7.16 7.23 -0.18 -5.99 7.34zm26.95 -78.37l12.18 2.76 -2.68 -6.63 3.09 2.24 2.82 2.49 2.53 2.71 2.24 2.9 1.94 3.06 1.66 3.2 1.38 3.32 1.09 3.41 0.82 3.48 0.56 3.54 0.3 3.58 0.04 3.6 -0.21 3.6 -0.46 3.59 -0.7 3.57 -0.95 3.52 -1.18 3.46 -1.42 3.38 -1.65 3.29 -1.89 3.18 -2.13 3.06 -2.36 2.9 -2.59 2.74 -2.82 2.55 -3.05 2.34 -3.28 2.11 -3.49 1.85 -3.7 1.58 -3.91 1.29 -4.1 0.97 -4.27 0.64 -4.44 0.29 -0.31 -12.54 3.44 -0.22 3.25 -0.49 3.07 -0.73 2.89 -0.95 2.74 -1.16 2.57 -1.36 2.4 -1.55 2.25 -1.73 2.09 -1.89 1.93 -2.04 1.77 -2.18 1.6 -2.3 1.44 -2.41 1.26 -2.51 1.09 -2.59 0.9 -2.65 0.72 -2.7 0.54 -2.73 0.35 -2.74 0.16 -2.74 -0.03 -2.71 -0.22 -2.67 -0.41 -2.61 -0.61 -2.54 -0.78 -2.45 -0.97 -2.34 -1.16 -2.24 -1.34 -2.12 -1.52 -1.98 -1.72 -1.84 -1.91 -1.69 -2.13 -1.54 -2.68 -6.63zm2.68 6.63l-3.64 -2.38 0.95 -4.25 2.68 6.63z"/>
    <path id="_1" class="fil4" d="M1002.51 627.88c-5,10.61 -31.18,34.67 -40.58,38 -23,8.15 -41.69,-15.66 -33.54,-38.43 3.57,-9.99 29.03,-34.66 39.41,-38.96 24.68,-10.2 45.26,16.98 34.71,39.38zm-64.35 -100.67c16.13,-4.91 31.26,9.67 33.46,22.4 4.58,26.5 -24.06,40.08 -48.38,65.59 -6.73,7.06 -19.99,24.03 -30.51,26.84 -22.14,5.92 -58.35,-20.67 -15.45,-61.11 10.31,-9.72 19.01,-18.09 29.1,-27.76 9.2,-8.8 17.66,-21.68 31.78,-25.97zm-57.81 -34.81c15.03,-5.19 29.79,8 32.75,20.34 4.81,20.08 -9.83,30.62 -18.04,38.51 -8.4,8.09 -53.16,53.11 -60.56,55.67 -16.65,5.76 -31.25,-7.79 -34.27,-20.96 -5.66,-24.67 23.71,-40.84 49.08,-66.39 8.05,-8.11 18.62,-22.89 31.04,-27.17zm-69.32 -24.35c23.15,-8.31 45.13,23.2 27.84,45.75 -2.76,3.6 -43.55,42.72 -48.33,44.39 -29.66,10.3 -46.11,-25.3 -29.99,-46.96 3.69,-4.96 44.11,-40.89 50.48,-43.18zm394.66 -23.15c-9.06,-4.85 -14.85,-10.54 -23.83,-16.56l-130.67 -92.16c-26.71,-18.25 -20.01,-16.62 -38.96,-4.93 -34.31,21.16 -67.96,38.96 -101.12,60.16 -51.71,33.07 -84.82,-28.37 -45.34,-57.37l101.94 -59.24c113.5,-59.93 245.57,-8.17 250.09,103.33 0.79,19.47 -2.65,52.45 -12.1,66.77zm-426.59 33.86c-10.15,-36.92 -21.77,-51.12 -13.72,-97.95 5.53,-32.17 22.02,-58.02 37.35,-76.8 41.59,-50.91 130.8,-65.28 167.58,-42.26 -25.56,16.8 -114.59,58.92 -125.84,79.6 -9.24,16.98 -6.14,39.01 4.54,52.68 28.64,36.62 64.6,7.36 93.1,-9.42 28.54,-16.81 56.87,-35.34 86.05,-51.19 12.92,6.56 26.7,19.54 40.6,27.82l81.15 56.47c18.93,14.19 67.22,43.19 69.66,65.41 2.2,20.07 -11.71,38.86 -30.4,38.24 -21.18,-0.7 -69.7,-52.43 -84.22,-49.28 -1.41,7.38 1.22,8.25 8.24,13.38 15.4,11.27 57.91,35.39 64.25,49.46 12.57,27.92 -8.79,55.31 -32.58,49.72 -7.58,-1.78 -20.91,-13.57 -27.34,-17.99 -13.03,-8.98 -44.43,-35.35 -52.32,-34.69 -4.01,12.18 4.06,10.39 15.46,19.48 7.53,6.01 14.55,11.13 21.53,16.31 10.22,7.59 32.73,19.74 21.93,49.54 -7.18,19.78 -31.19,24.56 -47.84,12.07 -10.27,-7.7 -32.82,-30.49 -41.36,-28.39 -4.02,8.27 0.48,9.75 0.5,9.77 0.01,0.01 39.87,23.21 16.1,52.47 -6.17,7.59 -17.36,16.76 -31.33,8.32l-26.12 -18.54c10.79,-8.51 25.89,-23.17 19.4,-48.19 -2.33,-8.99 -8.26,-16.15 -13.26,-20.29 -9.31,-7.71 -13.61,-5.25 -23.26,-8.95 13.9,-40.56 -13.71,-72.12 -52.7,-53.35 -7.89,-50.1 -44.42,-49.25 -69.06,-25.51 -2.22,-18.38 -11.6,-35.38 -29.5,-38.83 -25.06,-4.84 -33.99,11.74 -46.59,20.89zm435.11 -23.37c9.07,-40.44 20.67,-65.05 8.15,-110.26 -9.85,-35.56 -30.84,-57.3 -51.53,-72.29 -91.35,-66.21 -164.05,-12.27 -196.66,-21.02 -87.53,-23.49 -137.95,1.02 -180.21,48.22 -18.46,20.62 -34.12,49.3 -38.79,84.46 -6.66,50.08 5.32,64.72 17.77,103.75 -47.17,30.32 -32.22,85.26 17.94,80.39 -6.44,38.15 24.59,56.66 56.8,43.46 3.04,41.88 45.06,54.89 66.58,24.98 0.35,0.54 0.63,1.34 0.79,1.76l3.44 11.12c1.55,5.14 2.74,7.8 5.29,11.37 24.86,34.94 56.8,2.86 62.7,-1.05l21.91 16.01c30.86,22.65 64.39,-2.16 58.64,-40.98 14.42,6.73 27.77,20.28 49.55,5.47 13.86,-9.42 21.6,-24.1 18.33,-49.12 19.84,6.34 37.94,0.89 46.94,-11.61 11.72,-16.29 8.76,-29.79 5.48,-48.75 42.97,-1.08 56.05,-56.83 26.89,-75.92z"/>
   </g>
   <g>
    <path class="fil3" d="M909.61 556.59l-6.46 -6.81 0 0 0.81 -0.79 0.81 -0.81 0.82 -0.84 0.83 -0.87 0.83 -0.88 0.84 -0.91 0.85 -0.92 0.86 -0.93 0.87 -0.95 0.88 -0.95 0.9 -0.97 0.91 -0.97 0.92 -0.96 0.95 -0.97 0.97 -0.97 0.98 -0.96 1 -0.95 1.03 -0.95 1.05 -0.93 1.08 -0.91 1.1 -0.89 1.13 -0.87 1.17 -0.85 1.2 -0.83 1.23 -0.79 1.26 -0.76 1.3 -0.72 1.34 -0.68 1.38 -0.64 1.41 -0.59 1.45 -0.54 1.49 -0.49 2.71 9 -1.13 0.37 -1.1 0.41 -1.08 0.45 -1.06 0.49 -1.03 0.53 -1.01 0.56 -1 0.61 -1 0.64 -0.97 0.66 -0.95 0.7 -0.95 0.73 -0.94 0.76 -0.91 0.78 -0.91 0.81 -0.91 0.83 -0.9 0.86 -0.89 0.87 -0.88 0.88 -0.87 0.9 -0.87 0.92 -0.87 0.92 -0.86 0.93 -0.87 0.94 -0.87 0.94 -0.87 0.94 -0.87 0.94 -0.87 0.93 -0.87 0.94 -0.89 0.92 -0.88 0.91 -0.91 0.91 -0.91 0.89 0 0zm-29.13 27.78l-6.41 -6.85 0 0 0.96 -0.91 0.95 -0.9 0.95 -0.89 0.93 -0.89 0.93 -0.88 0.92 -0.87 0.91 -0.87 0.91 -0.87 0.91 -0.86 0.89 -0.85 0.89 -0.86 0.89 -0.85 0.89 -0.85 0.89 -0.85 0.89 -0.85 0.89 -0.85 0.88 -0.84 0.88 -0.84 0.89 -0.85 0.88 -0.85 0.89 -0.85 0.89 -0.85 0.89 -0.85 0.89 -0.86 0.91 -0.87 0.9 -0.86 0.91 -0.87 0.91 -0.87 0.91 -0.88 0.93 -0.89 0.94 -0.9 0.94 -0.9 6.46 6.81 -0.94 0.9 -0.94 0.9 -0.92 0.88 -0.92 0.88 -0.91 0.87 -0.91 0.87 -0.91 0.87 -0.89 0.86 -0.89 0.86 -0.9 0.86 -0.89 0.85 -0.89 0.85 -0.88 0.85 -0.89 0.85 -0.89 0.85 -0.89 0.85 -0.88 0.84 -0.89 0.85 -0.89 0.85 -0.89 0.85 -0.89 0.85 -0.9 0.86 -0.91 0.87 -0.91 0.86 -0.91 0.86 -0.91 0.87 -0.93 0.88 -0.93 0.88 -0.94 0.89 -0.95 0.89 -0.95 0.91 -0.97 0.91 0 0zm11.04 53.15l2.41 9.09 0 0 -2.53 0.55 -2.58 0.32 -2.61 0.11 -2.63 -0.11 -2.62 -0.31 -2.61 -0.51 -2.57 -0.7 -2.53 -0.89 -2.48 -1.08 -2.4 -1.26 -2.3 -1.45 -2.2 -1.64 -2.07 -1.82 -1.91 -2 -1.74 -2.19 -1.55 -2.36 -1.33 -2.53 -1.08 -2.7 -0.82 -2.86 -0.52 -3 -0.21 -3.12 0.11 -3.23 0.46 -3.33 0.79 -3.4 1.16 -3.48 1.52 -3.54 1.9 -3.61 2.28 -3.67 2.68 -3.73 3.09 -3.79 3.52 -3.85 3.95 -3.91 6.41 6.85 -3.63 3.59 -3.18 3.49 -2.74 3.36 -2.33 3.24 -1.94 3.11 -1.57 2.98 -1.22 2.84 -0.9 2.7 -0.6 2.55 -0.33 2.41 -0.08 2.27 0.15 2.15 0.35 2.02 0.54 1.91 0.73 1.81 0.9 1.71 1.05 1.61 1.21 1.51 1.35 1.41 1.48 1.3 1.59 1.18 1.7 1.06 1.78 0.94 1.84 0.8 1.89 0.66 1.92 0.53 1.93 0.37 1.92 0.23 1.9 0.07 1.85 -0.07 1.77 -0.22 1.7 -0.37 0 0zm28.34 -25.56l6.76 6.51 0 0 -0.62 0.65 -0.66 0.71 -0.7 0.77 -0.74 0.83 -0.78 0.87 -0.82 0.91 -0.84 0.95 -0.88 0.98 -0.91 1 -0.92 1.02 -0.96 1.05 -0.98 1.06 -1 1.07 -1.02 1.07 -1.04 1.08 -1.05 1.07 -1.08 1.07 -1.09 1.05 -1.09 1.02 -1.11 1.01 -1.13 0.99 -1.14 0.95 -1.15 0.92 -1.16 0.89 -1.18 0.84 -1.18 0.79 -1.19 0.75 -1.21 0.7 -1.24 0.63 -1.25 0.56 -1.28 0.49 -1.3 0.4 -2.41 -9.09 0.69 -0.21 0.74 -0.28 0.79 -0.35 0.82 -0.42 0.87 -0.49 0.91 -0.57 0.94 -0.63 0.94 -0.67 0.96 -0.74 0.98 -0.79 0.99 -0.83 0.99 -0.86 1 -0.91 1 -0.94 1 -0.95 0.98 -0.98 0.98 -1 0.98 -1.01 0.97 -1.02 0.95 -1.01 0.94 -1.02 0.92 -1.01 0.91 -1 0.89 -0.99 0.86 -0.96 0.84 -0.94 0.82 -0.92 0.79 -0.88 0.77 -0.85 0.75 -0.82 0.71 -0.77 0.69 -0.73 0 0zm47.15 -61.53l9.23 -1.61 0 0 0.38 2.78 0.17 2.74 -0.04 2.66 -0.24 2.61 -0.44 2.55 -0.62 2.48 -0.79 2.41 -0.95 2.34 -1.11 2.27 -1.24 2.2 -1.37 2.14 -1.48 2.09 -1.59 2.05 -1.68 2 -1.76 1.97 -1.85 1.95 -1.92 1.92 -1.98 1.92 -2.05 1.91 -2.1 1.91 -2.14 1.91 -2.19 1.92 -2.21 1.94 -2.25 1.96 -2.26 1.98 -2.28 2.02 -2.29 2.05 -2.29 2.09 -2.28 2.14 -2.27 2.18 -2.25 2.24 -2.23 2.29 -6.76 -6.51 2.36 -2.42 2.36 -2.35 2.38 -2.28 2.37 -2.21 2.36 -2.16 2.34 -2.1 2.32 -2.05 2.29 -2.01 2.25 -1.96 2.2 -1.92 2.15 -1.9 2.09 -1.86 2.02 -1.84 1.94 -1.81 1.87 -1.8 1.77 -1.78 1.68 -1.77 1.58 -1.76 1.46 -1.74 1.35 -1.74 1.23 -1.74 1.11 -1.74 0.98 -1.74 0.85 -1.74 0.71 -1.75 0.59 -1.77 0.45 -1.8 0.32 -1.83 0.17 -1.88 0.03 -1.95 -0.12 -2.02 -0.29 -2.11 0 0zm-27.49 -18.71l-2.71 -9 0 0 1.82 -0.49 1.81 -0.35 1.81 -0.23 1.79 -0.1 1.77 0.01 1.75 0.13 1.72 0.24 1.68 0.34 1.65 0.44 1.61 0.53 1.57 0.62 1.53 0.7 1.48 0.77 1.43 0.84 1.39 0.91 1.33 0.97 1.29 1.03 1.23 1.07 1.18 1.12 1.12 1.17 1.06 1.2 1.01 1.25 0.95 1.28 0.88 1.31 0.83 1.34 0.75 1.37 0.68 1.39 0.62 1.41 0.54 1.44 0.46 1.44 0.38 1.45 0.3 1.47 -9.23 1.61 -0.19 -0.93 -0.25 -0.95 -0.31 -0.98 -0.37 -0.98 -0.43 -0.99 -0.5 -1 -0.55 -0.99 -0.6 -0.99 -0.66 -0.97 -0.71 -0.96 -0.75 -0.93 -0.8 -0.91 -0.84 -0.88 -0.88 -0.84 -0.92 -0.81 -0.94 -0.75 -0.99 -0.71 -1 -0.66 -1.04 -0.61 -1.06 -0.56 -1.07 -0.49 -1.09 -0.43 -1.11 -0.37 -1.12 -0.3 -1.13 -0.23 -1.13 -0.16 -1.14 -0.08 -1.16 -0.01 -1.16 0.07 -1.17 0.15 -1.2 0.24 -1.2 0.32 0 0z"/>
    <path id="_1_0" class="fil2" d="M938.16 527.21c-14.13,4.29 -22.59,17.17 -31.78,25.97 -10.09,9.67 -18.79,18.04 -29.1,27.76 -42.9,40.44 -6.69,67.03 15.45,61.11 10.52,-2.81 23.78,-19.79 30.51,-26.84 24.32,-25.51 52.97,-39.09 48.38,-65.59 -2.2,-12.74 -17.33,-27.31 -33.46,-22.4z"/>
   </g>
   <g>
    <path class="fil3" d="M852.62 522.9l-6.63 -6.64 0 0 0.72 -0.74 0.74 -0.77 0.76 -0.82 0.79 -0.86 0.8 -0.88 0.83 -0.92 0.84 -0.93 0.86 -0.97 0.88 -0.99 0.9 -1 0.91 -1 0.94 -1.03 0.95 -1.02 0.96 -1.03 0.99 -1.03 1 -1.03 1.03 -1.03 1.05 -1.01 1.06 -1 1.08 -0.98 1.1 -0.96 1.13 -0.94 1.14 -0.91 1.16 -0.89 1.19 -0.85 1.2 -0.82 1.24 -0.78 1.26 -0.74 1.29 -0.67 1.32 -0.63 1.34 -0.57 1.37 -0.51 3.03 8.9 -0.95 0.35 -0.95 0.4 -0.96 0.46 -0.96 0.51 -0.97 0.56 -0.96 0.61 -0.97 0.66 -0.97 0.7 -0.97 0.74 -0.97 0.78 -0.96 0.81 -0.96 0.84 -0.95 0.87 -0.96 0.9 -0.94 0.91 -0.93 0.93 -0.93 0.95 -0.92 0.96 -0.92 0.98 -0.91 0.98 -0.89 0.98 -0.89 0.99 -0.88 0.98 -0.87 0.96 -0.86 0.97 -0.86 0.96 -0.84 0.94 -0.84 0.93 -0.83 0.89 -0.82 0.88 -0.82 0.86 -0.81 0.83 0 0zm-47.84 62.01l-9.12 2.12 0 0 -0.5 -2.66 -0.27 -2.63 -0.05 -2.6 0.17 -2.56 0.38 -2.51 0.58 -2.45 0.75 -2.39 0.93 -2.33 1.08 -2.27 1.22 -2.22 1.36 -2.18 1.48 -2.13 1.59 -2.1 1.69 -2.07 1.79 -2.04 1.87 -2.02 1.95 -2.01 2.03 -2 2.09 -2 2.16 -2 2.2 -2.01 2.25 -2.02 2.29 -2.03 2.32 -2.05 2.35 -2.07 2.37 -2.1 2.38 -2.13 2.39 -2.16 2.38 -2.2 2.38 -2.23 2.36 -2.27 2.34 -2.32 6.63 6.64 -2.44 2.42 -2.45 2.36 -2.45 2.3 -2.45 2.26 -2.44 2.2 -2.41 2.16 -2.4 2.12 -2.36 2.08 -2.32 2.04 -2.26 2.01 -2.21 1.98 -2.14 1.95 -2.07 1.93 -1.99 1.91 -1.91 1.88 -1.81 1.86 -1.7 1.84 -1.6 1.83 -1.49 1.81 -1.36 1.8 -1.24 1.78 -1.1 1.76 -0.96 1.75 -0.83 1.74 -0.69 1.73 -0.55 1.73 -0.41 1.73 -0.26 1.73 -0.12 1.76 0.03 1.8 0.19 1.85 0.36 1.91 0 0zm28.19 17.58l3.04 8.89 0 0 -1.83 0.57 -1.83 0.45 -1.82 0.32 -1.81 0.2 -1.79 0.08 -1.77 -0.04 -1.74 -0.14 -1.71 -0.25 -1.66 -0.35 -1.64 -0.44 -1.6 -0.54 -1.55 -0.62 -1.5 -0.7 -1.45 -0.77 -1.41 -0.84 -1.37 -0.92 -1.3 -0.97 -1.25 -1.02 -1.2 -1.08 -1.15 -1.13 -1.08 -1.17 -1.04 -1.21 -0.97 -1.26 -0.92 -1.29 -0.85 -1.33 -0.79 -1.35 -0.73 -1.37 -0.66 -1.4 -0.6 -1.42 -0.53 -1.45 -0.45 -1.45 -0.37 -1.47 9.12 -2.12 0.26 1 0.32 1.01 0.37 1.02 0.43 1.02 0.49 1.02 0.53 1.01 0.58 1 0.63 0.98 0.68 0.95 0.72 0.93 0.77 0.9 0.81 0.87 0.84 0.83 0.88 0.79 0.92 0.76 0.95 0.71 0.96 0.64 1 0.6 1.03 0.55 1.04 0.49 1.07 0.42 1.08 0.37 1.1 0.3 1.13 0.23 1.13 0.17 1.16 0.09 1.18 0.02 1.18 -0.05 1.21 -0.14 1.24 -0.22 1.25 -0.3 1.28 -0.39 0 0zm58.84 -54.62l6.48 6.79 0 0 -0.88 0.85 -1.08 1.05 -1.27 1.24 -1.45 1.42 -1.61 1.59 -1.76 1.73 -1.88 1.86 -2.01 1.98 -2.11 2.07 -2.2 2.16 -2.28 2.23 -2.35 2.29 -2.4 2.33 -2.44 2.36 -2.47 2.37 -2.47 2.37 -2.48 2.36 -2.46 2.33 -2.43 2.29 -2.39 2.23 -2.33 2.16 -2.27 2.07 -2.19 1.97 -2.1 1.86 -1.99 1.73 -1.88 1.59 -1.76 1.44 -1.63 1.28 -1.51 1.12 -1.39 0.95 -1.34 0.79 -1.46 0.65 -3.04 -8.89 0.13 -0.08 0.68 -0.41 1 -0.68 1.25 -0.93 1.45 -1.15 1.63 -1.33 1.78 -1.5 1.91 -1.66 2.03 -1.8 2.14 -1.92 2.23 -2.03 2.3 -2.12 2.36 -2.2 2.41 -2.26 2.44 -2.3 2.45 -2.34 2.46 -2.36 2.45 -2.36 2.42 -2.34 2.39 -2.32 2.34 -2.28 2.28 -2.22 2.2 -2.16 2.11 -2.07 2 -1.97 1.88 -1.86 1.76 -1.73 1.6 -1.58 1.45 -1.43 1.29 -1.26 1.11 -1.08 0.91 -0.88 0 0zm16.73 -34.02l9.1 -2.2 0 0 0.45 2.09 0.33 2.05 0.21 2 0.1 1.95 -0.02 1.92 -0.12 1.86 -0.22 1.81 -0.32 1.76 -0.41 1.71 -0.49 1.66 -0.57 1.58 -0.63 1.54 -0.7 1.49 -0.75 1.43 -0.8 1.38 -0.84 1.32 -0.88 1.27 -0.91 1.23 -0.94 1.17 -0.95 1.13 -0.96 1.09 -0.97 1.04 -0.97 1.01 -0.98 0.97 -0.96 0.93 -0.95 0.91 -0.93 0.87 -0.91 0.83 -0.87 0.8 -0.84 0.77 -0.79 0.74 -0.75 0.71 -6.48 -6.79 0.83 -0.79 0.84 -0.79 0.87 -0.8 0.87 -0.79 0.88 -0.82 0.88 -0.82 0.88 -0.83 0.88 -0.86 0.86 -0.86 0.85 -0.88 0.84 -0.91 0.81 -0.91 0.79 -0.94 0.76 -0.95 0.72 -0.97 0.69 -1 0.65 -1.01 0.61 -1.03 0.56 -1.06 0.5 -1.08 0.46 -1.11 0.41 -1.15 0.35 -1.16 0.28 -1.2 0.23 -1.24 0.15 -1.28 0.09 -1.33 0.01 -1.37 -0.07 -1.43 -0.15 -1.5 -0.25 -1.54 -0.35 -1.62 0 0zm-26.68 -17l-3.03 -8.9 -0 0 1.71 -0.52 1.71 -0.41 1.72 -0.28 1.7 -0.16 1.69 -0.05 1.67 0.07 1.65 0.17 1.62 0.27 1.58 0.37 1.56 0.45 1.53 0.54 1.48 0.62 1.43 0.68 1.4 0.75 1.37 0.83 1.31 0.88 1.27 0.94 1.22 0.99 1.16 1.04 1.12 1.08 1.07 1.12 1.02 1.17 0.96 1.19 0.91 1.24 0.85 1.27 0.79 1.29 0.72 1.31 0.66 1.33 0.6 1.36 0.52 1.37 0.46 1.39 0.38 1.41 -9.1 2.2 -0.25 -0.91 -0.3 -0.93 -0.36 -0.94 -0.42 -0.95 -0.47 -0.95 -0.53 -0.95 -0.58 -0.95 -0.62 -0.93 -0.67 -0.91 -0.72 -0.9 -0.75 -0.87 -0.8 -0.83 -0.83 -0.81 -0.87 -0.77 -0.9 -0.73 -0.92 -0.69 -0.95 -0.64 -0.96 -0.58 -1 -0.53 -1.01 -0.49 -1.03 -0.43 -1.02 -0.36 -1.05 -0.3 -1.05 -0.24 -1.05 -0.18 -1.06 -0.11 -1.07 -0.04 -1.08 0.03 -1.08 0.1 -1.08 0.18 -1.09 0.25 -1.11 0.34 -0 0z"/>
    <path id="_1_1" class="fil2" d="M880.35 492.41c-12.42,4.28 -22.98,19.06 -31.04,27.17 -25.37,25.55 -54.74,41.72 -49.08,66.39 3.03,13.17 17.62,26.72 34.27,20.96 7.4,-2.56 52.15,-47.58 60.56,-55.67 8.21,-7.9 22.86,-18.43 18.04,-38.51 -2.96,-12.34 -17.72,-25.53 -32.75,-20.34z"/>
   </g>
   <path class="fil2" d="M811.03 468.06c-6.37,2.28 -46.79,38.22 -50.48,43.18 -16.12,21.66 0.33,57.25 29.99,46.96 4.78,-1.66 45.57,-40.78 48.33,-44.39 17.29,-22.55 -4.69,-54.06 -27.84,-45.75z"/>
   <g>
    <path class="fil3" d="M969.58 592.85l-3.57 -8.69 0 0 2.64 -0.98 2.63 -0.74 2.62 -0.51 2.59 -0.28 2.55 -0.06 2.5 0.16 2.45 0.36 2.37 0.56 2.29 0.74 2.2 0.92 2.12 1.08 2.02 1.24 1.91 1.38 1.8 1.52 1.68 1.64 1.57 1.76 1.44 1.86 1.31 1.95 1.18 2.05 1.04 2.13 0.91 2.2 0.75 2.27 0.6 2.33 0.44 2.38 0.28 2.41 0.11 2.46 -0.07 2.48 -0.25 2.49 -0.44 2.49 -0.64 2.49 -0.83 2.47 -1.04 2.44 -8.46 -4.02 0.75 -1.78 0.61 -1.79 0.46 -1.8 0.32 -1.81 0.18 -1.81 0.05 -1.79 -0.08 -1.78 -0.21 -1.77 -0.32 -1.74 -0.44 -1.7 -0.55 -1.66 -0.66 -1.62 -0.77 -1.56 -0.86 -1.5 -0.96 -1.43 -1.04 -1.35 -1.12 -1.27 -1.21 -1.17 -1.28 -1.08 -1.34 -0.97 -1.4 -0.87 -1.46 -0.75 -1.52 -0.63 -1.57 -0.51 -1.62 -0.38 -1.66 -0.25 -1.71 -0.1 -1.76 0.04 -1.81 0.2 -1.85 0.36 -1.91 0.54 -1.96 0.72 0 0zm-36.8 36.2l-8.81 -3.18 0 0 0.54 -1.33 0.65 -1.32 0.74 -1.33 0.84 -1.36 0.93 -1.39 1.01 -1.42 1.09 -1.45 1.17 -1.48 1.23 -1.5 1.3 -1.53 1.35 -1.54 1.41 -1.55 1.45 -1.56 1.49 -1.55 1.53 -1.55 1.55 -1.54 1.57 -1.52 1.58 -1.49 1.59 -1.47 1.59 -1.44 1.59 -1.39 1.57 -1.34 1.57 -1.29 1.54 -1.23 1.51 -1.17 1.49 -1.1 1.45 -1.03 1.41 -0.94 1.37 -0.86 1.33 -0.78 1.31 -0.68 1.29 -0.58 3.57 8.69 -0.75 0.34 -0.89 0.47 -1.02 0.59 -1.11 0.7 -1.2 0.81 -1.27 0.89 -1.32 0.99 -1.38 1.07 -1.42 1.13 -1.45 1.2 -1.48 1.26 -1.49 1.31 -1.5 1.35 -1.5 1.39 -1.5 1.42 -1.49 1.44 -1.47 1.46 -1.45 1.46 -1.4 1.47 -1.37 1.46 -1.32 1.45 -1.26 1.43 -1.2 1.41 -1.12 1.37 -1.04 1.33 -0.96 1.27 -0.86 1.2 -0.76 1.13 -0.64 1.04 -0.53 0.94 -0.4 0.8 -0.25 0.62 0 0zm27.58 32.4l3.11 8.87 0 0 -2.47 0.78 -2.47 0.57 -2.43 0.37 -2.42 0.17 -2.37 -0.02 -2.32 -0.21 -2.27 -0.39 -2.21 -0.56 -2.14 -0.73 -2.06 -0.88 -1.97 -1.04 -1.89 -1.17 -1.79 -1.31 -1.69 -1.42 -1.59 -1.54 -1.48 -1.65 -1.37 -1.75 -1.26 -1.84 -1.14 -1.93 -1.01 -2.01 -0.89 -2.08 -0.76 -2.15 -0.63 -2.22 -0.49 -2.26 -0.34 -2.31 -0.2 -2.35 -0.04 -2.38 0.11 -2.41 0.28 -2.43 0.44 -2.43 0.61 -2.44 0.79 -2.43 8.81 3.18 -0.59 1.84 -0.46 1.83 -0.33 1.83 -0.21 1.81 -0.08 1.79 0.04 1.77 0.14 1.75 0.25 1.7 0.36 1.67 0.46 1.63 0.56 1.58 0.65 1.53 0.75 1.47 0.83 1.4 0.91 1.33 0.99 1.26 1.05 1.17 1.12 1.09 1.19 1 1.24 0.91 1.3 0.8 1.36 0.71 1.4 0.6 1.45 0.49 1.49 0.38 1.54 0.26 1.58 0.14 1.62 0.01 1.67 -0.12 1.73 -0.26 1.76 -0.41 1.81 -0.57 0 0zm37.91 -35.58l8.46 4.02 0 0 -0.66 1.3 -0.76 1.3 -0.85 1.33 -0.95 1.36 -1.03 1.39 -1.12 1.42 -1.19 1.45 -1.26 1.48 -1.32 1.49 -1.38 1.51 -1.43 1.53 -1.48 1.53 -1.52 1.53 -1.55 1.53 -1.57 1.52 -1.6 1.5 -1.61 1.47 -1.62 1.45 -1.62 1.42 -1.61 1.38 -1.6 1.33 -1.58 1.29 -1.56 1.23 -1.52 1.16 -1.49 1.1 -1.45 1.03 -1.41 0.95 -1.37 0.87 -1.33 0.79 -1.29 0.69 -1.26 0.6 -1.25 0.5 -3.11 -8.87 0.6 -0.24 0.79 -0.38 0.93 -0.5 1.04 -0.62 1.14 -0.72 1.22 -0.83 1.29 -0.91 1.35 -1 1.41 -1.07 1.45 -1.14 1.48 -1.2 1.5 -1.25 1.53 -1.31 1.53 -1.34 1.54 -1.38 1.54 -1.41 1.51 -1.42 1.5 -1.45 1.47 -1.45 1.44 -1.45 1.39 -1.44 1.34 -1.42 1.29 -1.41 1.22 -1.38 1.15 -1.34 1.06 -1.3 0.98 -1.25 0.88 -1.18 0.77 -1.1 0.66 -1.02 0.53 -0.91 0.4 -0.77 0 0z"/>
    <path id="_1_2" class="fil2" d="M1002.51 627.88c10.55,-22.4 -10.04,-49.58 -34.71,-39.38 -10.39,4.3 -35.84,28.97 -39.41,38.96 -8.15,22.77 10.54,46.58 33.54,38.43 9.41,-3.33 35.59,-27.39 40.58,-38z"/>
   </g>
   <polygon class="fil5" points="925.14,998.92 925.14,1641.59 871.09,1641.59 871.09,998.92 "/>
   <polygon class="fil5" points="1014.84,998.52 1014.84,1641.18 960.8,1641.18 960.8,998.52 "/>
   <polygon class="fil5" points="1104.55,998.52 1104.55,1641.18 1050.51,1641.18 1050.51,998.52 "/>
   <polygon class="fil2" points="842.85,979.2 1131.37,979.2 1131.37,933.54 842.85,933.54 "/>
   <polygon class="fil2" points="823.82,914.33 1150.4,914.33 989.08,792.17 "/>
   <polygon class="fil2" points="842.85,1661.03 1131.37,1661.03 1131.37,1706.7 842.85,1706.7 "/>
   <polygon class="fil2" points="821.77,1811.25 1152.46,1811.25 1152.46,1791.03 821.77,1791.03 "/>
   <polygon class="fil2" points="842.85,1725.87 1131.37,1725.87 1131.37,1771.54 842.85,1771.54 "/>
   <g>
    <path class="fil5" d="M2239.25 1018.42l0 27.18c71.24,4.38 79.58,8.11 79.58,92.73l0 370.93c0,78.05 -8.34,85.72 -84.63,92.08l0 27.18 268.34 0 0 -27.18c-87.25,-6.36 -95.59,-11.62 -95.59,-91.42l0 -142.72 71.69 17.98c10.3,0.66 30.25,0.66 44.94,-1.32 93.83,-10.74 187.22,-70.15 187.22,-193.36 0,-61.82 -24.33,-105.88 -62.69,-134.17 -38.37,-27.4 -93.61,-37.92 -162.23,-37.92l-246.63 0zm167.71 85.06c0,-26.53 3.73,-36.83 10.08,-43.19 6.58,-6.58 26.31,-11.62 52.62,-11.62 75.85,0 141.18,42.53 141.18,145.13 0,119.92 -75.63,152.37 -135.26,152.37 -30.25,0 -56.56,-7.23 -68.62,-11.62l0 -231.07z"/>
    <path class="fil5" d="M3223.8 1471.79c-16,44.94 -33.98,75.85 -51.95,93.83 -21.93,24.56 -55.91,30.25 -106.77,30.25 -37.71,0 -70.59,-1.76 -89.23,-12.06 -17.97,-9.65 -22.36,-27.84 -22.36,-79.14l0 -366.11c0,-82.21 8.99,-87.47 84.63,-92.52l0 -27.62 -260.01 0 0 27.62c79.58,5.04 85.94,10.96 85.94,92.52l0 369.18c0,82.43 -8.34,88.78 -90.54,94.49l0 26.52 443.28 0c9.65,-28.5 29.6,-119.04 35.96,-151.27l-28.94 -5.7z"/>
    <path class="fil5" d="M3561.64 1628.53l0 -27.18c-77.61,-5.7 -85.94,-11.62 -85.94,-92.52l0 -370.49c0,-81.55 8.33,-87.25 85.94,-92.3l0 -27.62 -261.98 0 0 27.62c78.26,5.04 86.59,10.75 86.59,92.3l0 370.49c0,80.9 -8.33,86.82 -86.59,92.52l0 27.18 261.98 0z"/>
    <path class="fil5" d="M4303.29 1018.42l-229.1 0 0 27.62c68.62,3.07 90.98,15.35 95.36,59.63 2.63,26.97 6.58,69.28 6.58,156.75l0 218.79 -2.63 0 -408.2 -462.79 -147.76 0 0 27.62c44.94,3.07 65.55,10.75 85.5,33.98 17.32,22.36 20.61,27.62 20.61,96.24l0 201.69c0,86.59 -3.95,130.88 -7.89,160.48 -4.39,46.91 -28.72,58.97 -83.97,62.92l0 27.18 229.53 0 0 -27.18c-65.99,-5.04 -87.69,-16.66 -92.08,-65.55 -2.63,-26.97 -6.58,-71.25 -6.58,-157.84l0.66 -229.31 1.32 0 421.14 489.32 30.69 0 0 -375.54c0,-87.47 2.63,-129.78 5.92,-160.04 4.39,-42.97 27.62,-53.93 80.9,-56.34l0 -27.62z"/>
    <path class="fil5" d="M4907.71 1166.18c-4.39,-56.56 -9.65,-128.69 -9.65,-171.43l-20.61 0c-14.69,17.97 -23.67,23.68 -49.98,23.68l-388.91 0c-28.5,0 -40.56,0 -54.81,-23.68l-20.61 0c-1.97,51.52 -6.36,113.56 -10.96,174.5l28.94 0c12.28,-44.28 20.61,-71.69 32.89,-87.91 12.93,-19.73 32.89,-28.72 116.63,-28.72l55.9 0 0 457.53c0,75.19 -8.33,85.5 -96.46,91.2l0 27.18 284.12 0 0 -27.18c-91.2,-5.7 -99.53,-16.66 -99.53,-91.2l0 -457.53 65.33 0c73.22,0 90.1,7.01 106.11,28.72 12.28,16.22 22.36,41.21 32.66,87.91l28.94 -3.07z"/>
    <path class="fil5" d="M5651.11 1018.42l-259.56 0 0 27.62c76.51,6.36 84.18,11.4 84.18,90.54l0 147.54 -330.16 0 0 -147.54c0,-79.8 7.68,-84.18 82.43,-90.54l0 -27.62 -258.47 0 0 27.62c79.58,6.36 86.59,10.75 86.59,90.54l0 373.35c0,79.8 -7.01,85.06 -83.97,91.42l0 27.18 260.88 0 0 -27.18c-79.8,-6.36 -87.47,-12.28 -87.47,-91.42l0 -183.71 330.16 0 0 183.71c0,79.8 -7.67,85.06 -90.76,91.42l0 27.18 266.14 0 0 -27.18c-78.92,-6.36 -87.25,-11.62 -87.25,-91.42l0 -373.35c0,-79.8 7.67,-84.18 87.25,-90.54l0 -27.62z"/>
    <path class="fil5" d="M6085.85 1160.04c-8.33,-60.72 -12.71,-99.09 -16.66,-132.41 -35.73,-12.72 -78.92,-23.68 -124.74,-23.68 -125.84,0 -201.47,77.61 -201.47,171.44 0,103.25 91.85,150.17 158.94,183.49 73.66,38.37 125.18,70.59 125.18,138.55 0,67.3 -41.22,110.28 -111.59,110.28 -98.87,0 -145.57,-98 -161.57,-157.85l-28.94 8.33c5.92,45.6 19.95,131.1 26.31,149.52 9.65,4.6 23.24,12.28 47.57,19.95 24.33,8.34 56.56,15.56 96.68,15.56 131.54,0 217.03,-80.24 217.03,-181.08 0,-103.26 -84.18,-147.54 -166.18,-187.44 -78.7,-37.71 -123.21,-69.94 -123.21,-135.92 0,-51.3 34.2,-101.94 106.54,-101.94 81.34,0 110.71,67.96 127.37,128.25l28.72 -5.05z"/>
    <path class="fil5" d="M6719.63 1166.18c-4.39,-56.56 -9.65,-128.69 -9.65,-171.43l-20.61 0c-14.69,17.97 -23.68,23.68 -49.99,23.68l-388.91 0c-28.5,0 -40.56,0 -54.81,-23.68l-20.61 0c-1.97,51.52 -6.36,113.56 -10.96,174.5l28.94 0c12.28,-44.28 20.61,-71.69 32.88,-87.91 12.94,-19.73 32.89,-28.72 116.63,-28.72l55.9 0 0 457.53c0,75.19 -8.33,85.5 -96.46,91.2l0 27.18 284.12 0 0 -27.18c-91.2,-5.7 -99.53,-16.66 -99.53,-91.2l0 -457.53 65.33 0c73.22,0 90.1,7.01 106.1,28.72 12.28,16.22 22.36,41.21 32.67,87.91l28.94 -3.07z"/>
    <path class="fil5" d="M8175.54 1018.42l-229.1 0 0 27.62c68.62,3.07 90.98,15.35 95.37,59.63 2.63,26.97 6.58,69.28 6.58,156.75l0 218.79 -2.63 0 -408.2 -462.79 -147.76 0 0 27.62c44.94,3.07 65.55,10.75 85.5,33.98 17.32,22.36 20.61,27.62 20.61,96.24l0 201.69c0,86.59 -3.95,130.88 -7.89,160.48 -4.39,46.91 -28.72,58.97 -83.97,62.92l0 27.18 229.53 0 0 -27.18c-65.99,-5.04 -87.69,-16.66 -92.08,-65.55 -2.63,-26.97 -6.58,-71.25 -6.58,-157.84l0.66 -229.31 1.32 0 421.14 489.32 30.69 0 0 -375.54c0,-87.47 2.63,-129.78 5.92,-160.04 4.39,-42.97 27.63,-53.93 80.9,-56.34l0 -27.62z"/>
    <path class="fil5" d="M8701.69 1472.66c-14.03,38.15 -32.01,71.03 -48.89,90.98 -21.7,24.56 -50.42,30.91 -120.36,30.91 -43.63,0 -79.36,0 -98,-10.96 -17.97,-11.62 -23.02,-32.89 -23.02,-77.39l0 -173.63 87.7 0c83.96,0 90.98,5.26 104.35,74.32l28.94 0 0 -184.59 -28.94 0c-12.06,63.57 -18.41,71.25 -104.35,71.25l-87.7 0 0 -210.24c0,-28.28 1.76,-30.69 33.32,-30.69l71.03 0c65.99,0 92.3,6.36 106.33,26.75 12.06,20.61 22.36,42.31 31.35,81.55l29.6 -3.94c-3.95,-52.62 -7.68,-114.44 -9,-138.55l-434.94 0 0 27.62c74.53,6.36 82.87,8.99 82.87,94.92l0 367.87c0,77.17 -8.34,86.16 -94.92,92.52l0 27.4 470.68 0c8.55,-29.81 27.18,-116.63 33.54,-152.14l-29.6 -3.94z"/>
    <path class="fil0" d="M7107.01 1005.6c172.37,0 312.11,142.37 312.11,317.99 0,175.62 -139.74,317.99 -312.11,317.99 -172.37,0 -312.11,-142.37 -312.11,-317.99 0,-175.62 139.73,-317.99 312.11,-317.99z"/>
    <path class="fil2" d="M7133.31 1315.51l0 111.94c0,13.5 -11.82,24.54 -26.29,24.54l0 0c-14.46,0 -26.29,-11.04 -26.29,-24.54l0 -111.94c-22.91,-9.74 -38.9,-31.82 -38.9,-57.5 0,-34.69 29.18,-62.81 65.19,-62.81 36,0 65.19,28.12 65.19,62.81 0,25.68 -15.99,47.76 -38.9,57.5z"/>
    <path class="fil6" d="M7101.04 1315.92c-21.32,-9.71 -36.21,-31.71 -36.21,-57.32 0,-30.53 21.16,-55.96 49.17,-61.5 -3.73,-0.74 -7.57,-1.12 -11.5,-1.12 -33.51,0 -60.67,28.04 -60.67,62.63 0,25.6 14.88,47.61 36.21,57.32l0 111.61c0,13.45 11.01,24.46 24.47,24.46 4.15,0 8.07,-1.04 11.5,-2.89 -7.7,-4.13 -12.96,-12.27 -12.96,-21.57l0 -111.61z"/>
    <g>
     <path class="fil5" d="M7129.9 651.38l-679.16 413.38 -25.97 -42.67 679.16 -413.38 28.64 1.87 -2.67 40.8zm-25.97 -42.67l14.98 -9.12 13.66 10.99 -28.64 -1.87zm506.16 450.01l-508.82 -409.21 31.31 -38.93 508.82 409.21 -31.31 38.93z"/>
    </g>
   </g>
  </g>
  <path class="fil7 str0" d="M1478.98 2775.7c-3.93,40.82 -10.52,73.8 -19.79,98.92 -6.12,16.18 -29.67,30.62 -70.81,43.49 -44.75,13.66 -96.25,20.57 -154.5,20.57 -96.25,0 -176.48,-28.74 -240.54,-86.05 -65.01,-58.25 -97.5,-132.99 -97.5,-224.06 0,-92.95 33.6,-170.2 100.8,-231.91 64.69,-59.51 142.88,-89.19 234.42,-89.19 65.01,0 119.65,7.85 163.76,23.55 39.25,13.82 59.66,26.69 61.24,38.63 3.3,23.4 5.02,61.24 5.02,113.68 0,8.63 -7.69,13.66 -23.23,15.23 -11.94,1.26 -19.31,-2.51 -21.99,-11.15 -16.33,-52.44 -38,-88.71 -65.16,-108.97 -27.17,-20.25 -67.99,-30.46 -122.31,-30.46 -67.99,0 -123.57,22.61 -166.43,67.67 -46.63,48.99 -70.03,116.19 -70.03,201.45 0,84.63 24.49,153.09 73.64,205.22 47.89,51.19 108.97,76.78 183.55,76.78 48.51,0 86.67,-10.37 114.62,-31.25 26.69,-19.78 48.52,-52.44 65.32,-97.66 4.87,-13.19 15.86,-17.9 32.97,-14.29 12.25,2.82 17.9,9.42 16.96,19.78zm1158.57 -153.56c0,88.71 -32.82,163.77 -98.45,225.47 -64.38,60.77 -141.78,91.07 -232.22,91.07 -95.15,0 -173.97,-28.58 -236.93,-85.57 -64.38,-58.88 -96.56,-134.88 -96.56,-228.14 0,-90.28 32.65,-165.96 97.97,-227.36 64.38,-60.14 142.89,-90.13 235.52,-90.13 94.37,0 172.87,29.36 235.52,87.93 63.43,59.51 95.15,135.03 95.15,226.73zm-93.27 15.86c0,-89.18 -24.34,-159.84 -73.17,-211.65 -46.95,-49.77 -108.97,-74.58 -185.91,-74.58 -63.75,0 -116.19,23.55 -157.17,70.65 -40.98,47.1 -61.39,108.34 -61.39,183.86 0,90.6 23.71,161.72 71.28,213.54 46.32,50.4 109.28,75.52 188.73,75.52 64.06,0 116.34,-23.55 156.86,-70.81 40.51,-47.26 60.76,-109.44 60.76,-186.53zm1283.08 -308.69c0,7.38 -8.32,13.66 -24.81,18.53 -36.74,10.37 -55.11,31.72 -55.11,64.06l0 330.98c0,69.71 0.79,125.92 2.67,168.63 0.63,16.18 -3.14,25.44 -11.46,27.63 -13.82,3.45 -25.43,-3.77 -35.01,-21.51 -15.39,-29.21 -75.68,-100.96 -180.57,-215.42 -87.77,-95.46 -172.72,-184.65 -254.99,-267.55 -2.67,-2.82 -5.49,-3.45 -8.16,-2.36 -2.99,1.57 -4.4,5.18 -4.4,10.68l0 376.99c0,40.51 20.41,64.53 61.24,72.23 16.96,3.3 25.44,9.26 25.44,17.74 0,11.62 -9.58,16.96 -28.58,16.02 -73.01,-2.99 -129.69,-2.99 -170.2,0 -13.19,0.94 -19.79,-4.4 -19.79,-16.18 0,-6.43 6.6,-11.15 19.79,-13.82 23.55,-5.5 39.41,-13.03 47.42,-22.61 8.01,-9.42 11.93,-25.6 11.93,-48.21l0 -406.66c0,-17.75 -3.61,-31.41 -10.99,-40.82 -7.06,-8.63 -20.72,-17.43 -40.98,-26.69 -14.92,-7.06 -22.14,-14.29 -21.51,-21.67 0.94,-8.32 7.85,-11.62 20.57,-9.89 39.73,5.49 74.11,6.59 103.16,3.61 15.07,-1.57 28.58,4.24 40.82,17.43l385.31 410.9c5.19,5.81 8.8,8.8 10.68,8.8 2.51,0 3.77,-4.08 3.77,-12.4l0 -332.71c0,-38.94 -20.41,-62.02 -61.24,-69.09 -14.45,-2.36 -21.67,-6.6 -21.67,-12.72 0,-12.72 6.6,-18.37 19.78,-16.8 50.24,5.5 106.46,4.87 168.32,-1.88 10.83,-1.26 17.74,-1.41 20.73,-0.47 5.18,1.41 7.85,6.6 7.85,15.23zm1175.53 0c0,7.38 -8.32,13.66 -24.81,18.53 -36.74,10.37 -55.11,31.72 -55.11,64.06l0 330.98c0,69.71 0.79,125.92 2.67,168.63 0.63,16.18 -3.14,25.44 -11.46,27.63 -13.82,3.45 -25.43,-3.77 -35.01,-21.51 -15.39,-29.21 -75.68,-100.96 -180.57,-215.42 -87.77,-95.46 -172.72,-184.65 -254.99,-267.55 -2.67,-2.82 -5.49,-3.45 -8.16,-2.36 -2.99,1.57 -4.4,5.18 -4.4,10.68l0 376.99c0,40.51 20.41,64.53 61.24,72.23 16.96,3.3 25.44,9.26 25.44,17.74 0,11.62 -9.58,16.96 -28.58,16.02 -73.01,-2.99 -129.69,-2.99 -170.2,0 -13.19,0.94 -19.79,-4.4 -19.79,-16.18 0,-6.43 6.6,-11.15 19.79,-13.82 23.55,-5.5 39.41,-13.03 47.42,-22.61 8.01,-9.42 11.93,-25.6 11.93,-48.21l0 -406.66c0,-17.75 -3.61,-31.41 -10.99,-40.82 -7.06,-8.63 -20.72,-17.43 -40.98,-26.69 -14.92,-7.06 -22.14,-14.29 -21.51,-21.67 0.94,-8.32 7.85,-11.62 20.57,-9.89 39.73,5.49 74.11,6.59 103.16,3.61 15.07,-1.57 28.58,4.24 40.82,17.43l385.31 410.9c5.19,5.81 8.8,8.8 10.68,8.8 2.51,0 3.77,-4.08 3.77,-12.4l0 -332.71c0,-38.94 -20.41,-62.02 -61.24,-69.09 -14.45,-2.36 -21.67,-6.6 -21.67,-12.72 0,-12.72 6.6,-18.37 19.78,-16.8 50.24,5.5 106.46,4.87 168.32,-1.88 10.83,-1.26 17.74,-1.41 20.73,-0.47 5.18,1.41 7.85,6.6 7.85,15.23zm944.72 481.25c-8.8,36.43 -14.6,73.17 -17.43,110.38 -0.31,5.81 -9.73,8.16 -28.1,7.22 -47.73,-2.36 -108.81,-3.61 -182.92,-3.61 -81.49,0 -151.68,1.57 -210.55,4.71 -13.19,0.63 -19.79,-4.86 -19.79,-16.17 0,-8.17 6.6,-12.72 19.79,-13.97 18.53,-2.2 30.3,-5.65 35.48,-10.52 6.44,-6.12 9.73,-19.16 9.73,-38.78l0 -423.62c0,-28.42 -2.67,-46.48 -7.85,-54.02 -5.18,-7.54 -19.62,-14.91 -43.34,-22.29 -12.56,-3.93 -17.11,-11.46 -13.82,-22.45 1.57,-5.81 4.08,-8.95 7.38,-9.58 3.14,-0.94 11.3,-0.32 24.49,1.88 19.62,3.14 70.97,4.71 154.03,4.71 82.74,0 154.03,-1.89 213.69,-5.5 19.94,-1.26 29.99,0.16 29.99,4.08 0,1.57 -0.31,3.14 -0.94,4.55 -6.6,29.99 -9.42,64.38 -8.48,103.16 0.31,9.58 -4.08,14.29 -13.19,14.29 -8.63,0 -14.6,-4.08 -17.9,-12.4 -8.64,-21.35 -16.17,-35.8 -22.61,-43.49 -9.89,-11.62 -24.02,-18.84 -42.55,-21.99 -14.76,-2.67 -66.89,-4.08 -156.23,-4.08 -10.05,0 -16.64,1.73 -19.31,5.02 -1.57,1.88 -2.36,6.43 -2.36,13.82l0 192.03c0,7.69 4.4,11.46 13.35,11.46 28.26,-0.63 68.77,-2.67 121.68,-5.97 9.11,-0.94 15.86,-5.34 20.25,-13.34 3.3,-6.13 6.91,-18.84 10.52,-38 2.82,-13.19 9.89,-17.9 21.51,-14.29 10.52,1.88 14.92,6.6 13.35,14.13 -8.63,41.45 -11.46,95.46 -8.48,162.04 0.32,7.22 -4.71,11.62 -15.07,13.19 -9.11,1.25 -14.44,-3.77 -16.01,-15.07 -3.14,-23.24 -6.91,-38.63 -11.78,-46.16 -4.71,-7.38 -13.66,-11.78 -26.85,-13.35 -25.28,-2.98 -63.27,-4.55 -114.15,-4.55 -5.5,0 -8.32,2.2 -8.32,6.43l0 200.67c0,28.58 16.64,46 49.77,52.44 8.32,1.57 37.06,2.36 86.2,2.36 76.46,0 124.04,-26.69 142.88,-79.92 4.56,-12.56 12.09,-16.64 22.45,-12.4 9.74,2.51 13.66,8.17 11.46,16.96zm1069.23 -34.86c-3.93,40.82 -10.52,73.8 -19.79,98.92 -6.12,16.18 -29.67,30.62 -70.81,43.49 -44.75,13.66 -96.25,20.57 -154.5,20.57 -96.25,0 -176.48,-28.74 -240.54,-86.05 -65.01,-58.25 -97.5,-132.99 -97.5,-224.06 0,-92.95 33.6,-170.2 100.8,-231.91 64.69,-59.51 142.88,-89.19 234.42,-89.19 65.01,0 119.65,7.85 163.76,23.55 39.25,13.82 59.66,26.69 61.24,38.63 3.3,23.4 5.02,61.24 5.02,113.68 0,8.63 -7.69,13.66 -23.23,15.23 -11.94,1.26 -19.31,-2.51 -21.99,-11.15 -16.33,-52.44 -38,-88.71 -65.16,-108.97 -27.17,-20.25 -67.99,-30.46 -122.31,-30.46 -67.99,0 -123.57,22.61 -166.43,67.67 -46.63,48.99 -70.03,116.19 -70.03,201.45 0,84.63 24.49,153.09 73.64,205.22 47.89,51.19 108.97,76.78 183.55,76.78 48.51,0 86.67,-10.37 114.62,-31.25 26.69,-19.78 48.52,-52.44 65.32,-97.66 4.87,-13.19 15.86,-17.9 32.97,-14.29 12.25,2.82 17.9,9.42 16.96,19.78zm1079.44 -308.69c-0.31,5.5 -0.94,9.27 -2.04,11.31 -1.1,2.04 -4.24,3.45 -9.42,4.4 -11.3,2.51 -18.84,-1.88 -22.45,-13.03 -13.19,-41.14 -28.89,-68.46 -46.95,-82.12 -25.12,-18.21 -69.24,-27.32 -132.05,-27.32 -25.59,0 -39.57,2.83 -41.92,8.32 -0.94,1.73 -1.41,4.4 -1.41,7.69l0 458.16c0,19.63 4.56,33.29 13.82,41.14 9.26,7.7 27.63,14.92 54.95,21.36 11.78,2.36 18.37,4.08 19.94,5.02 4.24,2.82 5.81,8.63 4.56,17.59 -0.95,7.06 -4.24,10.99 -10.05,11.62 -0.63,0.31 -6.91,0 -19,-1.1 -80.86,-6.91 -147.75,-7.22 -200.66,-0.79 -12.56,1.26 -20.57,1.26 -24.34,0 -2.99,-1.57 -5.02,-5.18 -5.97,-10.83 -2.51,-9.74 2.82,-16.33 16.01,-19.63 26.38,-6.75 43.96,-14.92 53.23,-24.49 10.37,-10.68 15.55,-27.95 15.55,-51.97l0 -445.92c0,-8.95 -5.5,-14.13 -16.49,-15.7 -1.25,-0.32 -10.36,-0.47 -27.16,-0.47 -58.25,0 -101.12,10.05 -128.75,30.15 -20.72,15.07 -39.41,42.55 -55.58,82.75 -5.18,12.56 -12.4,16.64 -21.51,12.4 -10.36,-2.51 -14.29,-8.17 -11.46,-16.96 10.67,-33.13 16.01,-79.76 16.01,-140.06 0,-7.06 9.42,-10.05 28.1,-8.79 66.26,4.4 139.59,6.6 219.82,6.6 152.15,0 250.75,-3.14 295.81,-9.42 17.27,-2.51 26.54,0.31 28.1,8.32 8.48,40.82 12.25,88.08 11.31,141.78z"/>
  <polygon class="fil1" points="8992.27,3370.68 -0,3370.68 -0,3310.23 8992.27,3310.23 "/>
 </g>
</svg>
